<?xml version="1.0" encoding="UTF-8" standalone="no"?>
<!-- Created with Inkscape (http://www.inkscape.org/) -->

<svg
   xmlns:dc="http://purl.org/dc/elements/1.1/"
   xmlns:cc="http://creativecommons.org/ns#"
   xmlns:rdf="http://www.w3.org/1999/02/22-rdf-syntax-ns#"
   xmlns:svg="http://www.w3.org/2000/svg"
   xmlns="http://www.w3.org/2000/svg"
   xmlns:sodipodi="http://sodipodi.sourceforge.net/DTD/sodipodi-0.dtd"
   xmlns:inkscape="http://www.inkscape.org/namespaces/inkscape"
   id="svg2"
   version="1.1"
   inkscape:version="0.47 r22583"
   width="1105.184"
   height="924.21857"
   sodipodi:docname="img215 (Custom).jpg">
  <title
     id="title2825">Orc Head</title>
  <metadata
     id="metadata8">
    <rdf:RDF>
      <cc:Work
         rdf:about="">
        <dc:format>image/svg+xml</dc:format>
        <dc:type
           rdf:resource="http://purl.org/dc/dcmitype/StillImage" />
        <dc:title>Orc Head</dc:title>
        <dc:date>07-06-10</dc:date>
        <dc:creator>
          <cc:Agent>
            <dc:title>Jason J. Patterson</dc:title>
          </cc:Agent>
        </dc:creator>
        <dc:rights>
          <cc:Agent>
            <dc:title>Public Domain</dc:title>
          </cc:Agent>
        </dc:rights>
        <dc:publisher>
          <cc:Agent>
            <dc:title>openclipart.org</dc:title>
          </cc:Agent>
        </dc:publisher>
        <dc:subject>
          <rdf:Bag>
            <rdf:li>orc</rdf:li>
            <rdf:li>fantasy</rdf:li>
            <rdf:li>medieval</rdf:li>
            <rdf:li>monster</rdf:li>
            <rdf:li>enemy</rdf:li>
          </rdf:Bag>
        </dc:subject>
        <cc:license
           rdf:resource="http://creativecommons.org/licenses/publicdomain/" />
      </cc:Work>
      <cc:License
         rdf:about="http://creativecommons.org/licenses/publicdomain/">
        <cc:permits
           rdf:resource="http://creativecommons.org/ns#Reproduction" />
        <cc:permits
           rdf:resource="http://creativecommons.org/ns#Distribution" />
        <cc:permits
           rdf:resource="http://creativecommons.org/ns#DerivativeWorks" />
      </cc:License>
    </rdf:RDF>
  </metadata>
  <defs
     id="defs6">
    <inkscape:perspective
       sodipodi:type="inkscape:persp3d"
       inkscape:vp_x="0 : 0.5 : 1"
       inkscape:vp_y="0 : 1000 : 0"
       inkscape:vp_z="1 : 0.5 : 1"
       inkscape:persp3d-origin="0.5 : 0.33333333 : 1"
       id="perspective10" />
  </defs>
  <sodipodi:namedview
     pagecolor="#ffffff"
     bordercolor="#666666"
     borderopacity="1"
     objecttolerance="10"
     gridtolerance="10"
     guidetolerance="10"
     inkscape:pageopacity="0"
     inkscape:pageshadow="2"
     inkscape:window-width="1280"
     inkscape:window-height="1005"
     id="namedview4"
     showgrid="false"
     inkscape:zoom="0.33610715"
     inkscape:cx="345.46396"
     inkscape:cy="852.67169"
     inkscape:window-x="-4"
     inkscape:window-y="-4"
     inkscape:window-maximized="1"
     inkscape:current-layer="svg2" />
  <path
     style="fill:#000000"
     d="m 871.00002,920.16453 c -22.7319,-8.63235 0,-18.98909 -16,-24.89301 -12.7159,-10.71568 -31.1232,-23.86614 -51.2998,-36.61256 -23.6654,-8.35153 -49.5973,-5.88263 -36.0343,-13.03399 -11.3063,-3.02987 -25.9925,-8.11284 -44.4248,-10.70574 -21.6354,11.09513 -95.4183,-38.59732 -50.1578,-20.7547 -15.9153,-19.383 34.8881,23.63768 12.8592,-5.89264 15.0757,17.76903 9.4822,-7.70896 30.5456,16.23067 -8.3905,-18.86358 15.144,4.31686 -2.5671,-18.08826 17.7343,8.23894 9.3245,25.34835 32.079,26.75 -19.4611,-12.55998 -36.1968,-50.89085 -7,-16.5 21.2043,14.31586 7.6404,-21.99591 9.5502,-21.30213 16.9867,28.15369 20.0116,-16.88789 -5.6702,-14.64458 -14.2552,-3.77683 -30.8045,-5.71801 -7.8953,-9.55283 -40.3986,-7.13878 -17.8159,-10.34185 5.9559,1.65937 1.5756,-15.4658 -38.6623,-21.78983 -55.3472,-25.97179 28.4692,3.3842 -41.8307,-36.45448 -10.5934,-7.68781 -24.7753,-22.56515 -12.5856,-7.50814 -12.7679,-0.99995 -35.9557,-28.22131 15.0594,21.42815 -18.5836,-5.3152 9.0311,18.90649 -19.2319,12.06128 -16.1533,26.17233 -8.4931,42.66611 25.9987,77.43871 36.4123,117.25152 9.6696,16.88272 2.5294,51.34046 1.2592,17.8913 1.3897,57.71646 -26.2128,-92.84586 -19.1792,-29.0233 -2.828,-8.87458 -19.033,-40.83373 -19.0008,-28.7267 -0.9113,5.07063 7.1929,28.54023 -5.4847,1.75 -2.9034,17.28403 -5.0567,-12.49241 -20.50201,9.22856 -21.46783,5.9578 -4.22831,-5.2526 13.00201,-13.72856 -19.0585,2.78883 18.7508,-27.93103 -11.6013,-0.086 -19.65685,11.68909 10.7781,-16.11196 8.2432,-29.37341 15.8602,-14.45728 11.7709,-51.34998 3.3581,-67.54058 -12.3805,0.16289 -25.78578,-68.31631 -19.21286,-24.41392 9.39196,29.44085 7.03696,40.5916 -2.75323,5.16392 -0.91973,13.69631 -3.54077,8.72302 -10.22037,-6.25 4.00894,33.82673 1.88857,14.4205 -4.27936,22.81115 -5.48814,-6.07101 -4.14324,-11.55521 -12.51889,-0.56115 -15.35845,7.97429 3.9891,-18.51703 2.57456,-26.3493 -14.1213,-3.80419 -12.67999,45.73198 -19.05748,31.04689 -2.63401,25.62736 -34.25639,90.40536 -29.06218,82.88303 24.23496,-68.51385 -22.63514,45.47293 -13.04721,22.16938 7.41446,-30.69719 41.05959,-95.22898 31.46791,-96.8468 24.63213,-37.48185 42.36911,-79.79364 37.74746,-125.55106 3.95907,-30.25253 15.56992,-61.47921 -7.26688,-30.89732 2.39894,-20.66131 -24.23948,-20.23786 9.51254,-23.1551 28.34079,-3.41797 73.61579,-7.54275 101.03129,7.57526 -22.6196,0.64817 -65.2303,-10.08746 -75.9153,1.87502 -26.22479,1.95339 -19.84906,51.74281 -8.65058,71.28872 12.01158,21.691 43.90868,40.97747 60.20498,54.79573 40.0742,25.5887 86.6021,43.68468 116.302,83.20805 27.5588,44.33551 -0.3891,-0.0584 -18.5889,-14.8933 12.8668,21.34566 49.1291,52.33659 27.0125,48.40423 17.8859,34.67711 83.1841,51.75671 92.9348,77.4545 -3.7016,-5.44876 22.5122,46.07273 1.9422,16.33911 -1.6598,1.39894 0.4996,19.28684 -3.159,7.40296 z m -7,-8.37756 c -2.7317,-5.40882 -4.4123,1.44417 0,0 z m -75,-60.62244 c -2.4663,-3.56228 -1.2094,3.65614 0,0 z m -5,-1.09362 c -16.3472,-18.42936 -30.7951,-7.28618 0,0 z m -31.9812,-10.89477 c -7.2351,-2.3234 3.7084,4.73082 0,0 z m 6.6955,-1.7259 c -7.5775,-3.9492 4.4424,6.88978 0,0 z m -119.5902,-1.55238 c -3.3236,-2.58823 3.1622,5.45447 0,0 z m 140.2495,0.0167 c -12.4597,-23.49594 -16.3073,-9.00798 0,0 z m -161.3736,-1.95003 c -1.5935,-5.36203 -1.3948,6.82554 0,0 z m 147.8102,0.58168 c -13.3438,-3.89788 6.3836,5.63753 0,0 z m -12.3102,-0.38168 c -2.4663,-3.56228 -1.2094,3.65614 0,0 z m -4.6084,-4.94173 c -11.07,-7.60182 7.7307,8.39485 0,0 z m -122.53,-1.55827 c -2.3735,-5.24699 -0.8654,5.28209 0,0 z m 83.6384,0.5 c -2.5549,-3.58746 -2.5549,3.58745 0,0 z m -78.4125,-3.74583 c -7.5595,-3.7275 2.1886,7.03862 0,0 z m 51.9125,0.74583 c -2.4663,-3.56228 -1.2094,3.65614 0,0 z m -61.0618,-7.10005 c 12.0821,-2.64079 -12.8506,-19.37996 -1.1792,5.75492 l 0.8217,-2.06919 0.3575,-3.68573 z m 128.1045,5.16915 c 5.0439,-9.50077 -6.2098,3.0467 0,0 z m -50.5427,-2.0691 c -2.5549,-3.58746 -2.5549,3.58745 0,0 z m 68,-4.95499 c -7.6875,-15.68549 -8.7211,15.85499 0,0 z m -103.5,-1.04501 c -2.4663,-3.56228 -1.2094,3.65614 0,0 z m 95.2708,-2.1875 c -3.1986,-5.50199 -2.0362,4.61233 0,0 z m -132.7708,-8.87152 c -2.8802,-1.90558 -2.3337,3.43479 0,0 z m -2.866,-9.5946 c -3.201,-3.89658 0.6834,9.0995 0,0 z m 89.866,-46.23939 c -6.8142,-7.38311 -4.4886,4.18406 0,0 z m -83.3623,-4.8026 c -5.9038,-3.24267 -2.3236,2.89928 0,0 z m 73.3623,-0.63817 c -25.3052,-20.66921 -21.3003,-4.89039 0,0 z m -60.5,-1.66622 c -2.5632,-3.70388 -3.8442,3.58521 0,0 z m -7.7292,-2.8125 c -4.7681,-4.64192 -3.5474,5.19849 0,0 z m -22.457,-8.93672 c -0.4074,-18.02212 -2.0339,15.85298 0,0 z m 70.1862,1.74922 c -3.5882,-3.80715 -1.242,3.94233 0,0 z m -72.8983,-9.41229 c -10.47067,-27.44158 -4.1847,7.04559 0,0 z M 579,718.16453 c -2.55494,-3.58745 -2.55494,3.58745 0,0 z m 10.5,-15 c -2.46629,-3.56228 -1.20936,3.65615 0,0 z m -19.91594,-3.86399 c 10.78296,-24.03308 -4.19451,-0.52304 0,0 z m 20.03397,-11.32699 c -7.43426,-10.05168 0.36459,-2.11684 0,0 z m 18.49679,-11.64783 c -14.71114,-18.33452 5.3131,11.49163 0,0 z m -24.82507,-4.16119 c -3.34641,-7.04699 -0.36,7.06851 0,0 z m -3.05839,-6.57003 c -4.66928,-5.9137 0.15947,8.23002 0,0 z m 18.93709,-7.66152 c -2.22882,1.43801 3.43487,4.65911 0,0 z m -15.42957,-3.2676 c -4.03744,-11.54934 2.06185,12.17954 0,0 z M 581,654.60548 c -2.88022,-1.90558 -2.3337,3.43479 0,0 z m 6.38116,-9.19098 c -10.46168,-33.81771 -9.30957,-7.72913 0,0 z m 76.61886,270.87244 c 4.4383,-7.0072 1.4393,5.21364 0,0 z m 193,-10.06342 c 2.3337,-3.4348 2.8802,1.90557 0,0 z m -12.595,-4.23091 c 4.3521,-1.52225 11.9069,5.71777 0,0 z m -194.405,-21.54478 c -4.6162,-12.44879 4.5691,8.07338 0,0 z m 176.7377,-0.97501 c -4.6785,-9.16154 9.8254,5.08152 0,0 z m -180.0784,-7.13232 c -3.9328,-7.69535 7.0875,3.71649 0,0 z m -70.06566,-2.05586 c 5.56169,-14.79737 28.62166,2.86547 0,0 z M 457.01187,868.4145 c 13.71193,-34.79424 19.91815,-76.24932 3.7345,-106.25 27.54372,44.82191 -21.81941,-58.3245 15.01061,-7.79933 10.75309,24.49398 -23.95917,-31.04837 -5.89739,6.12359 19.10534,33.82361 -4.91324,20.21841 17.14041,58.11 -14.12643,-19.76969 -11.42043,-14.41463 -7.85963,8.56574 -9.75755,-25.77032 -5.63409,33.38955 -10.53758,9.30376 -2.18318,9.52081 -8.16072,27.64143 -11.59092,31.94624 z m 42.00344,-4.78571 c 0.97743,-6.0075 4.77241,-1.08587 0,0 z M 558,862.1645 c 2.55494,-3.58746 2.55494,3.58745 0,0 z m -56.98469,-3.69095 c -1.67564,-10.11239 5.28293,2.1271 0,0 z M 600,856.22355 c 1.89762,-5.03543 3.10612,3.62659 0,0 z m 3.05792,-2.48928 c 0.4393,-9.22669 11.5423,5.54316 0,0 z m -201.16183,-6.83745 c -18.45866,-19.6782 -15.6191,-33.63491 1.07684,-2.73229 4.18133,0.0336 10.05167,21.18067 -1.07684,2.73229 z m 101.61037,4.51771 c 7.0098,-18.01972 0.34546,7.97272 0,0 z m 77.35432,-0.28327 c 18.96256,-8.83895 -10.47904,9.52942 0,0 z m 52.63924,0.0333 c 1.2094,-3.65614 2.4663,3.56227 0,0 z m -0.2085,-4.75 c -5.7575,-14.20639 5.8475,6.71669 0,0 z m -25.2915,-3.19098 c 2.3337,-3.4348 2.8802,1.90557 0,0 z m -95.92107,-1.47569 c 0.44611,-4.31138 1.44314,2.66329 0,0 z m 72.14724,-1.76189 c 5.13677,-7.74948 -4.60002,-3.72903 0,0 l 0,0 z m 139.27383,-0.82144 c 3.9032,-3.65314 3.9032,3.65313 0,0 z m -5,-1 c -4.0523,-3.54702 9.2408,2.74059 0,0 z m 14.1362,-0.50574 c 2.0313,-5.06302 3.881,3.64319 0,0 z M 461,837.22355 c 2.3337,-3.4348 2.88022,1.90557 0,0 z M 378.02006,824.6887 c -23.4179,-17.64891 -38.42536,-40.58791 -57.59346,-62.52417 -5.50374,-25.91288 25.09423,12.6009 29.8375,4.00686 4.12211,21.87335 -5.20514,-37.53702 4.56672,-3.76133 3.08727,20.08939 12.59945,51.61173 23.18924,62.27864 z M 358,790.49327 c -16.30534,-32.50551 -12.43683,-4.38638 0,0 z m -2,-10.32874 c -4.60762,-3.79495 -1.48564,2.82807 0,0 z m -2.63837,-3.5 c -2.10753,-5.23597 -2.10753,5.23597 0,0 z m 390.09789,40.25496 c -0.1618,-13.02415 3.6019,6.77388 0,0 z m -140.9595,-3.75496 c 3.5882,-3.80716 1.242,3.94232 0,0 z m 132.5,-5.80887 c 4.0963,-11.2848 4.9991,3.63876 0,0 z m 9,-0.63211 c 2.3337,-3.4348 2.8802,1.90557 0,0 z m -4,-2.97569 c 3.5472,-5.32583 3.3759,4.45798 0,0 z M 483,802.0689 c -7.71702,-9.83972 -1.42828,7.57808 1,1.09563 l -1,-1.09563 z m 260.44272,-11.32261 c 4.6247,-9.64866 18.108,2.13994 0,0 z m -28.4427,-17.79456 c 3.4843,-2.26571 4.8337,3.63796 0,0 z m -85.5411,-6.85373 c -0.995,-5.36376 4.6568,4.29951 0,0 z m -286.11384,-6.4766 c -0.55782,-8.92613 6.97841,6.50014 0,0 z M 315,748.16453 c 2.56315,-3.70389 3.84426,3.5852 0,0 z m 236.33333,-2 c 1.91252,-10.42599 1.91252,10.42599 0,0 z m 64.19789,1.70687 c -1.0586,-8.82436 3.3286,5.25764 0,0 z m 59.7188,-0.4126 c -7.5625,-5.10041 13.2708,1.27945 0,0 z M 310,744.39054 c -15.99576,-11.89614 5.74712,-3.19398 0,0 z m 303.57422,-1.89323 c 0.3939,-9.14372 3.0287,5.68123 0,0 z m 52.4258,0.22624 c 2.3337,-3.43479 2.8802,1.90558 0,0 z m -15,-1.55902 c -1.65,-3.7071 5.0552,3.76567 0,0 z M 299.25,736.38196 C 283.78538,718.72947 242.83656,701.72655 256,710.72796 238.35303,705.29229 218.58922,670.1856 245.93505,697.8497 253.12008,690.55438 289.58766,722.91578 304,737.66453 l -0.99347,1.34736 -3.75653,-2.62993 0,0 z M 252.5,706.16453 c -1.24187,-3.94236 -3.58829,3.8072 0,0 z m -7.19216,-4.93083 c -5.78073,-8.57206 1.00328,6.54353 0,0 z m 274.86329,36.63703 c -6.88724,-25.26047 -9.46336,-103.60813 1.08832,-45.4562 -4.42902,12.84338 2.90638,40.32743 -1.08832,45.4562 z M 520,697.5465 c -3.67794,-3.64461 -1.19913,6.48995 0,0 z m -1.33772,-5.63197 c -1.75023,0.99942 1.62308,5.50683 0,0 z m -0.5611,-7.46232 c -3.72757,-4.51611 2.51159,9.30243 0,0 z m -48.01207,50.17389 c -57.40302,-44.12505 27.31017,14.55286 0,0 z M 590.5,733.16453 c 1.20936,-3.65615 2.46629,3.56228 0,0 z M 270.25,722.61345 c -16.70088,-13.42985 8.01535,0.7757 0,0 z m -9.25,0.55108 c -2.9933,-5.13002 5.78562,2.13583 0,0 z m 568.40672,-1.91674 c -16.4342,-30.95934 -53.0168,-10.88403 -59.0898,-39.40999 -12.7862,-18.9431 -10.5044,-32.51307 -24.6385,-51.35926 -11.2055,-13.3418 -4.4246,-4.22653 -1.3073,-14.06401 -3.981,-14.39367 21.215,28.23666 19.375,40.70905 5.6815,37.22148 41.2272,41.69111 65.8955,35.67144 32.5453,-10.16144 22.5341,-1.53109 -1.6417,5.39174 25.0596,9.42717 52.2179,-18.02718 31.0869,-15.24993 16.0727,-5.96428 31.4112,-23.02211 50.8514,-25.49791 -7.6055,-15.21572 -27.0522,17.64049 -18.0477,-1.80833 -15.0525,7.03177 9.7694,-13.3613 -11.7094,-4.71606 -3.3747,-8.57001 -13.2024,-24.54284 -25.9985,-28.89224 -4.7624,-3.32273 -1.1822,-18.7845 -19.1473,-21.09222 19.3741,-6.73754 -29.7278,-25.76493 -23.1342,-25.8202 -1.1167,-6.52796 -10.0256,-15.23401 -14.9116,-31.69536 -17.5803,-2.3467 3.9831,-14.06696 -27.3973,-12.99147 31.1266,-2.96874 -12.6317,-10.99951 -7.03,-15.84921 28.5362,-14.19326 -24.2554,-7.11122 3.8935,-19.16952 -20.7551,6.8507 -12.563,3.07225 -11.3316,-12.56768 -8.2607,4.66754 -9.1251,8.69651 -17.1238,13.0279 -7.4594,-6.59694 42.4148,-28.17922 14.3869,-23.13019 -3.4351,-17.88856 5.412,-2.97821 15.7533,-17.82982 -1.9163,13.78572 21.619,-23.23234 45.5998,-12.81961 1.0869,-6.014 -32.4804,-11.4389 -43.8148,-8.79668 -10.2604,0.22248 10.3834,26.54323 -17.2929,3.65213 -33.9242,-0.79201 27.8567,30.27755 -11.8612,7.81629 -22.216,-5.8251 9.8224,14.3254 -20.0624,0.5041 -24.2756,15.37955 10.4,12.68928 -26.3113,23.28614 -19.9038,16.86246 0.7451,-13.40579 -23.4521,3.43186 -25.2006,15.77297 -18.0729,-15.3619 1.1619,-5.81422 5.8032,-12.10176 28.7726,-12.93343 23.893,-22.82265 16.5107,-2.07594 -7.0051,2.65084 -14.8072,-5.35319 0.081,17.29659 -41.1346,-9.88595 -8.9581,-1.20894 -16.2088,-9.18256 37.9317,1.89234 13.7182,-8.61522 22.1893,2.201 22.1789,-2.81375 13.5831,-7.12294 7.3612,-2.33353 31.2984,-21.1473 20.3494,-6.35189 20.3617,-7.64838 71.0354,-24.02626 64.6146,-19.52517 1.6646,20.02571 14.5205,-11.15592 11.25,2.68906 -12.6569,9.34425 22.7405,39.54334 18.676,14.19123 1.8301,6.5875 32.8134,1.26349 29.4392,2.11971 -1.9285,17.814 23.1147,18.1289 3.7163,4.7738 25.8352,-2.86232 16.7571,6.16681 27.4185,27.19857 0.573,-9.65638 3.3476,-16.22292 7.5673,-5.4135 -2.1321,-34.268 14.2528,9.9635 25.7034,-15.49699 0.6588,-42.73952 -12.5858,-18.23534 -24.5016,0.93812 12.4591,-19.21975 15.9376,-56.93423 26.2309,-38.50003 8.9715,45.77821 27.14388,-5.89299 14.059,-27.5 10.31728,-26.9795 24.92618,-28.1634 -7.2337,-35.70545 -20.3099,19.25688 -28.3921,35.61452 -1.4821,44.19953 -16.0719,11.87497 -58.0826,28.34505 -17.7154,4.50945 20.6428,-8.42071 -32.436,-1.51221 -30.6436,-6.01027 13.9064,10.92868 -22.3308,17.13722 -25.6878,38.39441 -2.0688,-11.84285 29.9812,-37.17835 5.7036,-23.91436 20.4143,-8.71413 32.6013,-39.69296 3.9248,-21.46642 6.8734,-18.02355 -59.5906,-24.61543 -16.8437,-30.03512 0.1076,-5.08586 19.7556,6.87467 19.6889,8.47763 11.6141,-11.85739 0.5249,-17.32695 17.5161,-9.95667 -18.8953,-3.42499 29.5804,-29.91982 -2.1343,-21.92567 -32.6808,31.14689 39.4507,-25.77702 -5.2348,-9.12863 -16.6918,15.77512 -29.4592,-6.49877 -47.1666,18.57961 -10.9838,-1.24252 7.8078,-12.26858 14.6493,-26.47774 -30.519,12.59398 -38.775,31.39022 -60.1457,27.05752 -25.3119,1.90262 9.7912,-2.22496 0.019,-6.59782 -20.9481,-0.54421 -43.554,-7.50849 -27.9637,-25.54497 -20.1997,-17.43956 0.7643,16.81328 -14.8004,16.13921 12.0058,-17.75809 -21.9122,-23.81584 3.921,-36.88498 -14.2399,-4.67465 -30.3523,4.28284 -10.0865,-9.52806 -20.8165,-12.76772 14.9228,-8.5319 17.2305,-16.68118 18.5606,-3.27392 16.1495,-6.19412 32.3959,8.35982 -0.053,-12.01527 20.7949,25.98584 36.9719,10.90599 2.5111,30.69547 34.8124,-24.04281 31.5647,-1.77171 -7.6957,-31.80571 0.9221,-17.91963 12.1497,1.27779 -19.2883,18.5142 -14.9498,20.89878 2.9939,9.23006 -3.8052,-9.35917 17.0076,-4.6875 6.2726,-24.65548 -2.4255,-5.13705 -27.0056,-9.21832 -33.5632,-25.84649 11.8516,12.07825 53.0304,22.5049 13.6399,1.38863 -14.7951,-25.1768 -59.158,-1.35372 -49.5811,-19.0553 43.4169,-4.61376 -41.036,-11.87443 -3.8651,-4.42034 -18.1107,0.60919 -9.4932,14.2304 -16.4725,-2.9829 23.7882,-1.10183 19.2385,-21.32435 2.8507,-8.41699 0.1655,-12.43029 -19.112,-2.65083 -16.6302,5.64055 -15.5645,-24.65898 21.6953,-15.21719 20.6826,-19.01206 20.4334,-0.42456 -17.9856,-13.18097 -15.6212,-8.83232 16.9693,-14.24571 -33.4193,-33.32166 -31.3445,-25.00317 -2.8543,13.09494 -8.3914,2.93334 -31.6252,8.34932 25.5115,-4.91218 32.0824,-21.37412 -2.3938,-19.65542 -6.5116,3.24654 -16.5521,-1.48051 -21.8301,-0.39501 -4.8309,-10.0396 36.5951,-14.55676 4.4083,-14.73152 -9.9977,-25.475994 -8.5734,20.97918 -20.3502,-8.841141 -7.4604,0.40176 -24.5846,-11.46837 -22.2331,2.869231 40.4841,21.77904 -73.61143,-21.493004 -8.5575,-6.812091 -2.8635,-0.49254 -25.7914,-19.087423 -36.43782,-11.00614 8.16682,8.93361 -45.32221,-4.643623 -49.69399,6.17054 -10.58801,3.42649 -55.90315,26.119221 -26.2976,21.246131 -11.57951,8.55387 7.45703,15.57367 -25.3383,5.98769 -8.51925,-2.2564 11.60332,22.85496 -16.39954,13.47686 -24.65869,12.32217 18.60908,14.22783 18.79015,7.77164 27.85252,3.86902 -38.42784,18.73201 -49.06072,17.76381 18.01706,-3.74407 67.17052,-18.85078 33.15819,-13.5 -36.53434,-0.71239 -57.03335,19.12523 -27.03967,20.42675 -2.65228,13.52161 -16.42957,31.07279 -9.83194,18.3002 -16.86673,18.87847 -36.4351,24.61836 -32.31188,11.52305 -2.47317,38.5852 -17.8301,13.6086 -2.45953,-3.06819 -7.9526,13.43409 -36.40631,24.17321 -29.83461,31.87076 14.01728,9.09797 23.06158,-26.95213 12.66959,6.3999 -14.36707,9.24447 -16.32777,8.3262 -19.9192,19.86691 -22.99337,-33.19914 -4.02288,85.77759 -14.90722,29.18062 -13.42795,-58.71914 9.67795,91.24992 -6.52373,19.5 -8.93536,-13.62093 -2.49097,-34.75539 -16.90266,-9.80089 -13.07921,64.11038 2.73566,-53.75084 -17.30656,-0.19911 12.55195,-27.45219 14.4407,-52.97931 -6.79078,-12.95559 -17.22484,15.77484 9.09859,-35.47271 6.31739,-28.07985 7.11714,-5.1144 2.25337,-28.66264 -9.69164,-8.4535 -14.36644,12.23869 -11.4991,21.55716 -2.89337,17.75735 -23.88504,17.11219 -20.75553,68.0154 -30.57153,69.34767 14.85177,-41.59295 -9.27435,-43.14081 -35.16086,-17.56564 -21.15298,11.03724 -52.29059,37.69896 -56.84125,49.9767 -18.6798,5.02543 23.1447,17.71267 -15.49657,10.41825 3.53988,7.37288 -26.1794,15.10722 -26.26156,35.42755 -3.52256,-10.09396 -25.55093,7.27311 -2.40061,0.93871 -34.839916,7.25892 -31.67809,35.10899 -69.212406,53.68835 38.898766,1.41502 -60.447654,19.27792 -7.99546,19.11752 -23.22069,12.9616 21.79217,0.28886 -9.36302,13.26774 39.44962,-13.37981 15.449,2.9897 -8.42911,6.48346 21.30405,-13.49678 -47.695304,12.2405 -4.77626,-5.77278 35.77372,-17.22538 -71.588934,19.21293 -16.650794,-7.68143 -15.11648,-1.38077 1.9944,-19.98723 -14.59491,-15.71057 32.828104,-6.18385 21.73325,-1.38782 2.02196,-9.25747 35.089124,1.76275 22.50656,-4.89514 10.79529,-12.06061 21.408774,29.36103 90.45949,-17.31274 66.379414,-18.79398 -4.62303,20.37605 -71.212744,11.28114 -51.62292,1.68967 23.2263,7.62494 53.71541,6.23338 14.94822,-2.41955 -42.380564,-6.53111 5.96488,-6.65122 2.5,-7.18169 -1.33646,-13.42273 25.25272,-7.87936 -2.5,-22.76967 -14.03821,-19.16386 32.40329,24.3428 16.973,-4.32556 -15.93042,-15.24583 9.75031,-27.04947 22.4724,-34.2908 38.347876,11.60652 20.672076,-2.25381 13.0546,-2.73315 34.157916,9.04082 -35.02008,-25.08406 8.218256,-6.94665 34.09189,8.10743 22.2709,0.28039 2.48865,-11.1446 -18.433416,-24.01319 47.55237,9.84747 37.79309,-3.96919 21.66287,2.066 -55.997456,-13.92227 -15.39943,-11.12139 9.52451,-5.09373 42.06864,9.53714 9.16547,-7.92202 -12.74677,-13.06386 36.60558,3.40234 1.20988,-22.0342 19.03445,3.52982 39.98232,17.12581 16.61597,-6.17308 -21.85869,-21.06531 13.33638,5.8686 16.7781,-14.01466 12.22191,0.4668 22.00365,8.0179 18.66084,-10.73227 11.37055,-2.59714 2.12004,-16.31695 22.46919,-2.00307 -19.32777,-10.48854 8.98921,-12.51493 -5.25806,-20.57943 28.50604,20.3288 -3.37031,-19.2864 30.70276,-19.0141 21.8787,-2.49924 -21.51139,-28.25114 20.69555,-7.77953 22.03852,3.89532 -35.77346,-21.57565 -1.14028,-15.57991 -21.73387,-26.88322 9.99387,-4.75124 18.63895,-9.79703 -18.48412,-17.80142 24.66432,0.9515 11.34316,-13.96087 -15.76339,-18.55255 -20.27216,-53.16135 -4.8177,-44.12044 14.41634,-0.8247 34.30695,24.38604 37.40144,15.35042 0.58989,28.47195 66.43906,12.68542 34.7984,12.07166 -11.6857,-7.87981 -13.30211,-11.53304 -31.36419,-13.8581 -14.60395,-9.11434 25.91215,3.25358 7.59792,-10.40862 -24.10717,-17.25994 -7.76809,-13.39444 4.53021,-7.99837 -24.47209,-28.791761 28.26091,15.84322 9.19097,-5.62011 23.65341,11.97321 1.74681,-15.99341 25.03756,7.02999 -9.96712,-18.89196 -26.04844,-30.315081 2.56941,-21.46964 -4.16102,-14.121341 21.07664,-12.924171 9.69325,-24.220564 9.14357,3.941143 42.31162,12.800423 25.24858,-4.97466 5.15875,-18.52928 20.22572,18.529543 24.77842,0.4086 -16.35485,0.31669 5.15513,-12.5954 -0.41658,-14.59123 11.57444,12.45937 15.80296,-14.67322 32.48091,-4.89746 -16.8836,-11.93209 -26.34459,-2.6691 1.00275,-11.00265 10.95563,-10.67341 28.10511,10.86806 21.53014,-2.48161 -7.78232,-24.7941 20.90485,14.93061 16.48314,-14.15791 13.80999,28.49612 4.587,7.63525 8.81232,-7.3959 11.80354,15.026 17.67558,13.77362 7.90908,-17.36438 17.7548,17.83216 10.24934,-3.72031996 30.55192,12.51883 11.03173,20.78174 4.46148,2.8925 -1.51056,-11.79383 12.61397,9.39555 27.65234,39.46802 17.27658,6.12643 4.63879,-15.30385 25.89745,27.0362 13.23399,-4.48928 13.48209,5.44608 49.30926,26.12795 37.80876,10.44483 -28.78355,-36.09424 43.7508,35.81627 14.9289,0.0766 14.8829,4.1088 47.393,38.45214 17.2555,3.55256 -45.0865,-43.34346 24.192,3.46752 22.0484,10.8798 20.7209,33.10148 -2.8676,-33.51029 0.028,-18.83927 12.5791,15.95523 22.2693,28.26255 13.3556,10.29429 17.7337,16.08387 7.4778,-10.48447 19.0577,20.57989 19.0598,9.18199 7.8134,24.01423 18.201,13.00918 6.9734,-19.42491 -6.8055,-63.0900696 8.5937,-21.19194 12.0813,17.54103 -25.1209,65.056513 6.0653,30.81788 29.564,-39.22295 -22.4701,33.145203 10.8664,6.87992 39.2647,-28.88912 5.3446,17.429003 3.6106,17.468173 -11.3775,11.532591 42.0483,-3.99376 12.8896,8.44942 29.5055,1.03449 40.1544,10.807131 2.0101,3.157961 -49.6967,3.1381 64.1899,6.58033 2.2804,8.39055 28.1942,9.10684 65.4444,51.79033 24,23.12492 -23.7341,-8.64 -55.2276,-20.07709 -15.0987,0.0741 10.9256,2.53929 27.7727,15.3705 5.3718,6.27437 37.9724,36.14954 -44.7418,-29.19746 -8.2017,9.11368 16.8851,44.12225 62.9268,55.76991 91.9581,89.69629 9.8014,22.63752 -18.377,35.36808 14.0556,43.07167 33.7819,26.13517 68.56638,53.65208 112.78398,58.17492 28.3428,10.58506 100.8424,-16.68008 85.6755,12.96049 11.7954,28.19989 16.5302,47.16272 22.6402,78.3647 -6.2128,19.53295 -12.2904,66.41297 -27.9112,38.514 -14.5394,32.69991 -32.4742,-24.55659 -39.3156,-8.25575 -6.6063,-25.81582 -6.9643,21.51064 -16.5126,-3.23839 -14.8495,26.61598 -9.1392,-12.90628 -23.1032,7.72455 4.9521,15.23487 -15.6755,86.45215 -28.1593,121.13389 -19.6355,30.42031 -44.55538,64.63937 -14.8193,89.20528 -18.1705,6.71229 -37.18458,-26.89525 -34.80468,7.72481 -28.2761,1.44151 -52.1954,48.05654 -91.1522,38.49956 l 0,5e-5 z m 10.883,-5.08326 c -2.1982,-7.0519 -3.3785,6.98282 0,0 z m 15.656,-1.83064 c 13.8925,-7.98483 -23.3384,5.60487 0,0 z m 28.1551,-13.30542 c 23.8954,-13.80604 -15.2524,1.85679 0,0 z m -71.4472,-0.99797 c -9.0995,-0.6832 3.8969,3.20092 0,0 z m 62.8877,-1.04817 c 18.6506,-11.77392 11.445,-11.84375 18.613,-19.38358 -4.87,0.49184 -39.4466,28.71842 -18.613,19.38358 z m -69.5413,-1.37682 c -3.8363,-5.30393 -1.8588,6.53101 0,0 z m 86,-19.47236 c -6.1422,-8.30825 -3.9017,5.50212 0,0 z m 27,-2.5038 c 3.3143,-13.82332 -18.5617,-11.75789 0,0 l 0,0 z m -21,-3.46482 c -2.4663,-3.56227 -1.2094,3.65614 0,0 z M 955,671.77152 c -0.4558,-2.68509 -5.9133,0.89625 0,0 z m -25.3958,-20.33616 c -2.25358,0.93472 2.1016,3.95961 0,0 z m -22.35418,-17.00427 c 12.5285,-10.01445 15.849,-24.98132 18.1081,-46.02421 -2.5211,-20.17319 2.6519,-39.16609 3.80328,-4.64257 7.5448,-19.17471 2.5846,-45.57297 9.6252,-35.34978 -7.5693,-6.92022 -6.3827,-25.52885 3.6114,-29.25 7.3422,-23.30933 7.5846,-51.43537 -6.0548,-48.74631 10.3348,-1.58948 15.9075,-20.81501 10.2146,-28.38751 -8.4767,-16.57591 1.5315,-44.85909 -7.871,-20.49525 -1.0099,37.81141 -13.78828,65.28161 -29.70338,99.81156 -9.0191,28.89291 -40.8018,48.86586 -39.9757,76.31277 7.6035,-16.42225 -5.5083,31.46433 7.9886,25.05477 17.4027,19.09024 11.0319,-0.12613 21.1262,15.17485 l 9.1236,-3.45832 0,0 z m -11.643,-1.84835 c 4.0765,-11.95403 -3.7114,-40.01738 7.8232,-14.65224 2.9879,-50.82982 15.3041,23.74049 -7.8232,14.65224 z m 4.9553,-10.33535 c -1.3474,-17.14192 -3.1675,13.37678 0,0 z m 10.0705,-1.59743 c 3.3027,-15.37504 6.3134,-25.1867 10.6172,-34.94293 0.566,13.24311 -1.8191,27.723 -10.6172,34.94293 z m 6.3672,-0.92641 c 1.8976,-5.03541 3.1061,3.62658 0,0 z m 3.0136,-37.80902 c 2.2022,-16.16511 3.5391,5.27381 0,0 z m 18.61368,-69.54404 c 0.7836,-16.63034 8.112,-5.9762 0,0 z M 752.00002,628.78116 c -0.9954,-2.48855 -7.9906,0.99156 0,0 z m -3,-6.13604 c -9.3431,-0.26979 -4.52,5.51182 0,0 z m 113.6928,-12.98059 c -8.4396,-15.3837 2.8785,14.94961 0,0 z M 947,597.10551 c -3.1061,-3.62658 -1.8976,5.03541 0,0 z m -94.45888,-4.87445 c -12.8568,-11.96347 2.9159,6.98988 0,0 z m 4.9907,-4.81653 c 14.3864,-15.48993 8.1875,-33.58247 3.2045,-24.10405 -1.059,-22.78509 -8.1224,-25.22821 -20.628,-41.03502 14.4144,3.82574 -7.5194,-8.77646 -0.3857,-10.83052 -4.5582,-5.76597 -8.5307,4.52304 -14.0277,-8.50502 -26.7134,4.70241 18.9232,-18.00938 -19.085,-4.51878 25.6698,-23.19202 -16.3039,-2.02227 1.3897,-20.22523 -23.5064,6.03957 -3.1106,-9.82107 -21.5528,-6.6215 -1.8638,20.00698 -10.1789,-24.17481 -16.6546,12.59012 11.1903,8.97645 32.4105,22.09738 34.2074,32.48527 12.801,10.19875 17.5738,25.06183 17,19.51473 6.8754,17.26998 9.6549,41.30828 19.5797,19.81033 22.7184,11.33779 -1.4642,27.90146 16.9525,31.43967 z m -3.0907,-32.7182 c -4.5584,-5.83929 7.5272,4.67773 0,0 z m -19.4328,-10.50547 c -3.4117,-6.93082 7.6883,3.12079 0,0 z m 9.9917,-9.46731 c 1.8976,-5.03541 3.1061,3.62658 0,0 z m -36,-16.55902 c 2.5632,-3.70388 3.8442,3.58521 0,0 z m -3,-8 c -11.6906,-14.4364 26.1114,1.65477 0,0 l 0,0 z m 3,-1.05902 c -2.8802,-1.90558 -2.3337,3.43479 0,0 z m -2,-2.44098 c -2.3735,-5.24699 -0.8654,5.28209 0,0 z m -23.3333,-16.16667 c -1.7996,-9.47064 3.0339,2.29221 0,0 z m 14.9474,-1.77019 c 5.8488,-3.77422 0.2272,4.52311 0,0 z m -22.0954,-3.81314 c -4.572,-26.22185 7.7382,9.27712 0,0 z m 69.0527,101.67857 c -16.2502,-18.08175 -10.9224,-1.76122 0,0 z M 968,577.5465 c -3.6779,-3.64461 -1.1991,6.48995 0,0 z m -137.70848,-3.13197 c -7.1083,-15.7164 -0.9734,9.50857 0,0 z m 11.3919,0 c 8.8822,-14.73885 -16.0616,2.48218 0,0 l 0,0 z M 972,566.66453 c -0.8654,-5.28209 -2.3735,5.24699 0,0 z m -149.15598,-2.75 c 7.3002,-20.49208 -28.4618,-5.77841 0,0 z m 61.399,-12.75 c 16.7405,-20.8656 40.2304,-77.84756 34.7689,-82.01169 -31.0957,-13.14598 -72.1782,-15.37614 -107.559,-14.64719 0.8255,18.59012 51.1352,46.5343 51.5471,80.38342 8.8226,6.39591 9.2978,41.30848 21.243,16.27546 z m 77.54468,4.86329 c -2.7316,0.19534 0.786,5.71652 0,0 z m -153.04958,-2.55377 c -11.3318,-3.95709 6.3976,6.12874 0,0 z m 6.7224,-8.38591 c -4.3901,-11.86373 -3.7962,18.02744 0,0 z m -9.1746,1.32639 c 2.7487,-26.47679 -22.0171,-1.92612 0,0 z M 958,546.66453 c -0.8654,-5.28209 -2.3735,5.24699 0,0 z m -136.99998,-0.5 c -2.5549,-3.58745 -2.5549,3.58745 0,0 z m 159.45728,-8.0691 c -3.1875,-3.32686 -0.3651,4.92515 0,0 z m -35.8531,-4.66007 c -2.2536,0.93472 2.1016,3.95961 0,0 z m -147.35978,-4.66815 c -5.8963,-12.92007 -5.2509,12.88639 0,0 z M 947,524.99786 c -0.7379,-9.59255 -2.4135,10.93154 0,0 z m -139.99998,0.16667 c -2.5549,-3.58745 -2.5549,3.58745 0,0 z m -17.4971,-4.95026 c -7.2555,-18.2215 -3.6775,7.59717 0,0 z M 954,507.40508 c 21.8144,-15.04036 1.5019,-56.77656 -1.2037,-17.32001 1.4204,-2.93773 -3.1738,26.99762 1.2037,17.32001 z m -171.97018,-3.18486 c -6.9168,-9.42819 0.2786,8.06762 0,0 z m 47.0459,-11.50892 c -0.1092,-11.37948 -6.1081,7.7878 0,0 z m -4.8882,-3.22988 c -4.3835,-1.43244 -0.4336,1.92488 0,0 z m -61.5706,-1.70757 c 1.4635,-20.44162 -12.5141,9.85669 0,0 z M 41.000004,484.15061 c -5.60621,-1.53881 -7.42619,3.11506 0,0 z m 712.200016,-1.18608 c -6.9422,-1.05967 1.3094,3.44546 0,0 z M 24.66667,479.71854 c -2.65017,-3.12863 -4.91168,4.8323 0,0 z m 790.83335,0.44599 c -1.242,-3.94233 -3.5882,3.80715 0,0 z m 251.71778,-1.25 c 20.4973,-26.805 -10.4855,-4.24943 0,0 z m -258.26348,-6.30504 c -9.3493,-9.67211 4.0225,15.02539 0,0 z m -39.9543,1.84075 c -2.1958,-9.14905 -2.3559,11.50246 0,0 z M 971,473.10551 c -2.8802,-1.90558 -2.3337,3.43479 0,0 z m 20.8948,-1.31423 c 2.4829,-15.62582 -10.5809,7.98301 0,0 z M 979.5,471.16453 c -2.4663,-3.56227 -1.2094,3.65614 0,0 z m -12,-1 c -1.2685,-4.07769 -5.8466,4.77582 0,0 z m -203.49998,-2.5 c -2.4793,-5.26898 -2.4793,5.26898 0,0 z m 166.49998,0.5 c -1.242,-3.94233 -3.58818,3.80715 0,0 z m 133.5,-0.55902 c -2.8802,-1.90558 -2.3337,3.43479 0,0 z m -397.01008,-0.33337 c 4.9592,-6.48143 -14.2172,3.8309 0,0 z m 121.3342,-0.50984 c 0.08,-7.52976 -5.5056,4.90049 0,0 z m 187.50748,-1.19951 c 18.7513,2.60372 57.5573,-24.98766 73.1707,-21.57871 18.1426,1.4911 67.0479,11.22568 23.7275,-3.89438 7.3322,-10.18238 19.7304,10.38062 28.0728,-8.57206 -10.3147,-30.98242 -19.794,-30.81486 -17.4003,-59.66531 -7.3196,-31.29894 -26.6692,-43.5946 -29.286,-6.12882 -13.9568,14.66392 -5.5334,37.27598 11.8796,34.97619 1.6399,18.53217 17.0876,-13.46075 16.3838,7.60279 -2.1916,24.14567 -3.0382,23.17287 -16.3716,3.95455 -4.4571,5.77807 -11.2445,-3.21024 -17.2539,19.55699 -0.2672,-39.87836 -42.7274,29.45302 -16.5768,-14.86042 -8.1739,-30.71437 -32.5108,48.8521 -17.1344,2.26507 -17.22,23.27155 -24.9708,36.17293 -10.9765,3.41416 25.0932,-30.102 -19.4656,-4.22225 -22.3202,14.48191 23.0445,-34.47529 8.5774,-20.9546 -5.7463,4.20477 3.6916,-7.94003 18.326,-51.19131 25.4957,-35.50782 2.6588,-13.01394 20.0178,1.0764 18.1609,-6.38545 18.0389,7.5911 20.7877,-23.03467 36.6949,-46.37248 -20.8917,16.60102 -45.8245,46.22799 -18.9716,6.75456 4.4711,-25.49037 -45.9251,10.09358 -42.3799,1.8562 -9.8769,13.63539 9.0523,-38.75118 -16.5326,-9.12423 -15.3779,8.37504 -20.9731,13.36245 -10.0466,-9.13047 -20.9727,-16.86155 -55.37278,23.64897 -30.9297,32.3531 16.8605,26.01171 10.0689,67.70811 20.9266,90.4016 8.8223,-3.68088 6.4543,5.51343 17.4139,-0.60174 z m 0.5681,-7.20045 c -31.848,-16.52923 29.5658,-14.50084 11.7604,-2.20308 l -5.7357,2.18984 -6.0251,0.0133 4e-4,-2e-5 z m 13.2562,-8.46684 c -1.8175,1.2028 1.8244,6.66419 0,0 z M 999,447.40508 c 5.1091,-7.45844 10.0949,2.68315 0,0 z m 59,-7.24055 c 2.5549,-3.58745 2.5549,3.58745 0,0 z m -41.4357,-2.29313 c 3.5044,-4.56352 -1.2662,4.16137 0,0 z M 1045,438.77152 c 3.9041,-3.2606 4.008,1.77513 0,0 z m 23.0153,-1.85699 c 0.7722,-5.23767 2.9242,7.31225 0,0 z m -53.0153,-2.75 c 1.2094,-3.65614 2.4663,3.56227 0,0 z m -54.9366,-4.04598 c 11.8728,-36.88557 37.9703,-19.49579 0,0 z M 1044,428.78256 c 1.1991,-6.48995 3.6779,3.64461 0,0 z m -2,-7.05901 c 2.3337,-3.43479 2.8802,1.90558 0,0 z m -90.5,-9.55902 c 3.5882,-3.80715 1.242,3.94233 0,0 z m 53,-1 c 1.2094,-3.65614 2.4663,3.56227 0,0 z M 955,409.2493 c 14.1969,-23.26501 -13.8669,-9.1027 -3.6114,-39.28167 15.7391,-25.83013 -2.9067,20.52831 14.6323,21.34256 28.2562,0.51603 7.9351,2.33347 1.5866,6.85434 3.8138,2.64171 -8.6963,14.28764 -12.6075,11.08477 z m 129.0789,-2.50144 c 0.4461,-4.31139 1.4435,2.66334 0,0 z m -135.0471,-2.37514 c 3.1549,-10.03269 18.0223,-3.04991 0,0 z m 23.5374,-2.09619 c 9.7205,-6.17095 8.3459,3.84636 0,0 z M 985,398.66453 c 2.3777,-5.39971 3.5052,5.29246 0,0 z m 10.6546,-1.95774 c -24.4687,-19.64705 37.3711,-59.10146 1.2235,-15.96693 -5.4259,3.76356 5.297,19.27031 -1.2235,15.96693 z m 21.8881,-4.47316 c 0.3651,-4.92516 3.1875,3.32686 0,0 z m -48.3552,-1.1316 c 3.1355,-5.58305 3.3059,3.64622 0,0 z m 94.3337,-0.26512 c -7.9785,-33.22216 10.168,-41.7998 11.1548,-16.80244 13.009,22.35884 -22.518,-4.59827 2.3237,15.94815 -5.8272,-5.78869 -8.794,3.50431 -13.4785,0.85429 z M 1071,356.91964 c -4.5317,0.0424 -2.0983,5.63486 0,0 z m -48.4573,32.31399 c 0.3651,-4.92516 3.1875,3.32686 0,0 z m -37.6579,-13.3191 c 1.5722,-24.17589 6.7073,3.86332 0,0 z m 25.2459,-18.371 c -4.7991,-5.81842 14.6903,-0.93793 0,0 z m 48.4984,106.371 c 20.4735,0.22168 -21.6149,-32.01341 -1.601,-0.63277 l 1.6604,4.73587 -0.059,-4.1031 0,0 z m -368.17178,-0.8191 c -3.1875,-3.32686 -0.3651,4.92515 0,0 z m 231.5427,0.0924 c -12.5583,-11.17928 -10.3698,3.40752 0,0 z M 38.462604,462.22501 c -3.64581,-3.07136 -5.55072,3.36319 0,0 z m 656.141616,-3.78969 c -2.2536,0.93472 2.1016,3.95961 0,0 z m 200.3958,0.72917 c -8.6904,-4.32291 2.4415,3.96946 0,0 z m 14.8124,-0.92884 c -10.7964,-10.67599 -3.7824,7.02547 0,0 z m 162.47708,-0.0702 c -0.1872,-8.55593 -2.7693,6.99712 0,0 z m -370.93108,-2.41096 c 6.6573,-8.88065 -13.2185,5.68445 0,0 z m 85.6144,-1.25878 c 19.3732,-6.54789 48.7382,-11.66137 5.8365,-6.15125 -7.5043,-5.14645 -23.3687,14.61329 -5.8365,6.15125 z m 134.3888,1.16878 c -0.1583,-5.08924 -6.1916,5.24144 0,0 z m 5.6384,0.44098 c -2.8802,-1.90558 -2.3337,3.43479 0,0 z m 153.42928,0.17337 c -4.3458,-4.91998 -4.2596,2.66088 0,0 z m -187.42928,-1.58102 c -9.7431,-17.49382 -13.161,6.10195 0,0 z m 7.6161,-3.34583 c -5.6282,-4.16321 4.1059,9.31541 0,0 z m 20.3839,-0.80413 c -1.7382,-4.62026 -5.5125,7.46846 0,0 z m -48,0.61663 c -11.8575,-6.14857 -7.8644,2.85897 0,0 z m 35.2725,-1.06609 c -4.667,-4.22334 0.2238,6.52697 0,0 z m -60.9782,-2.02075 c -32.0616,-3.2059 7.6317,4.33165 0,0 z m 4.7057,1.08684 c -2.4663,-3.56227 -1.2094,3.65614 0,0 z m 8.25,-1.22049 c -9.0346,-5.32975 -5.2647,-0.79741 0,0 z m 32.5639,-3.6134 c -6.1137,-13.84489 -5.7324,11.19147 0,0 z m 13.6105,-0.48426 c -4.1162,-17.30803 -7.8356,12.64909 0,0 z m -38.4244,2.48482 c -3.1436,-22.90747 -29.5048,-8.15637 0,0 z m 45.6042,-1.89584 c -2.2536,0.93472 2.1016,3.95961 0,0 z m 14.8064,1.87373 c 16.86508,-30.54226 -12.6124,-53.40108 -4.6543,-14.02391 6.56998,-0.32525 -0.4069,16.25844 4.6543,14.02391 z M 1061,446.77148 c -3.9041,-3.2606 -4.008,1.77513 0,0 z m -347.99998,-2.66601 c -2.8802,-1.90558 -2.3337,3.43479 0,0 z m 140.3531,-0.77867 c 0.6647,-23.1773 -19.9365,2.95528 0,0 z m 43.6469,0.83769 c -2.5549,-3.58745 -2.5549,3.58745 0,0 z m -65.1006,-5.10288 c -15.1289,-17.31004 3.5375,14.71725 0,0 z m 81.1006,2.10288 c -2.0746,-6.88666 -4.6874,6.81652 0,0 z m -17,0 c -2.5549,-3.58745 -2.5549,3.58745 0,0 z m -186.0364,-1.4562 c -4.6075,-3.32895 0.3719,-1.45348 0,0 z m 19.0364,-0.007 c 5.2473,-6.84 -12.846,3.03381 0,0 z m 108.2897,-1.53688 c -3.3785,-6.98282 -2.1982,7.0519 0,0 z m 141.13538,-0.1211 c -4.345,-1.74698 -1.9812,4.72415 0,0 z M 822.55142,435.6241 c -19.5376,-9.29462 6.6227,8.97111 0,0 z m -78.1217,0.654 c -6.0719,-6.71309 -5.1959,3.97802 0,0 z m -39.4498,-1.63786 c -4.7124,-4.29789 1.154,5.41154 0,0 z m 12.0201,1.10596 c 4.5347,-6.77736 -7.0267,0.28281 0,0 z m 194.1833,-1.79846 c -3.904,-1.61568 3.3725,4.6018 0,0 z m -174.1833,-0.72431 c -2.7372,-5.63079 -3.5906,3.2703 0,0 z m -26,-1.61804 c -2.8802,-1.90558 -2.3337,3.43479 0,0 z m 52.25,0.89674 c -5.5068,-1.62308 -0.9994,1.75023 0,0 z m 124.75,-0.39674 c -2.8802,-1.90558 -2.3337,3.43479 0,0 z m -143.1875,-1.55705 c -9.1749,-4.73985 4.6244,5.30495 0,0 z m 94.5453,-1.63393 c -9.9735,-14.36804 -39.5613,2.31571 -8.2805,0.32732 1.7189,2.14607 7.2,3.14785 8.2805,-0.32732 z m 3.6422,0.75 c -2.9091,-5.17731 -2.6225,5.21586 0,0 z m 76.6623,-3.75 c -1.7503,0.99942 1.6231,5.50682 0,0 z m -195.6623,1.31739 c 22.9469,-9.01984 -1.9397,-10.09635 0,0 z m 59,-0.0674 c -2.4663,-3.56227 -1.2094,3.65614 0,0 z m 3.5,0 c -3.8442,-3.58521 -2.5632,3.70388 0,0 z m -15.5,-0.87241 c 13.1953,-4.61968 -27.6373,0.68666 0,0 z m -57.4427,-2.54583 c 5.0694,-7.44531 -9.586,5.34819 0,0 z m 84.6534,-0.59469 c -19.5021,-5.08787 8.3113,6.21358 0,0 z M 97.000004,418.40895 c -10.4602,2.32741 -3.74615,6.1291 0,0 z m 626.292816,1.50545 c 9.8065,-8.62902 -13.6734,5.55627 0,0 z m 69.2072,0.25 c -2.4663,-3.56227 -1.2094,3.65614 0,0 z m -29.25,-0.66228 c -5.5068,-1.62308 -0.9994,1.75023 0,0 z m 10,-2.55821 c 7.9243,-2.93361 12.4598,-14.20955 -10.2334,-12.26943 -26.1181,19.53446 3.9962,-3.63404 -2.9118,10.54587 2.6161,-3.16201 16.0371,4.93606 13.1452,1.72356 z m 17.75,-0.85511 c 4.2121,-6.1591 -16.8896,-2.39548 0,0 z m 26,1.01658 c -2.8802,-1.90558 -2.3337,3.43479 0,0 z m 234.99998,-0.5 c -3.1061,-3.62658 -1.8976,5.03541 0,0 z m -139.86888,-0.78299 c -2.2259,-8.00083 -2.6575,4.4802 0,0 z M 86.000004,414.1644 c -2.56315,-3.7039 -3.84427,3.58521 0,0 z m 971.710296,-2 c 5.3374,-13.43789 -7.4497,0.41554 0,0 z m -954.03067,-1.29065 c -6.582306,-1.92684 -6.936286,4.96966 0,0 z m 938.43657,-5.0335 c -25.7457,-9.77504 9.6749,17.00499 0,0 l 0,0 z M 1051,411.1644 c -2.5549,-3.58745 -2.5549,3.58745 0,0 z m -976.499996,-2 c -2.46629,-3.56228 -1.20937,3.65616 0,0 z m 976.081796,-1 c 0.1894,-7.73814 -13.9542,0.81958 0,0 z m -264.62768,-2.08565 c -4.6645,-5.7386 0.899,7.02309 0,0 z m 123.6762,-1.16435 c -3.3309,-16.23121 -2.691,9.78126 0,0 z m 33.93798,-1.23729 c -6.3464,-23.71417 -0.8413,12.35678 0,0 z m 63.2442,0.54979 c -3.3059,-3.64622 -3.1355,5.58305 0,0 z M 78.500004,397.1644 c -15.5334,-7.33565 8.52244,7.00406 0,0 z m 20.9573,-2.0691 c -3.18756,-3.32686 -0.36509,4.92516 0,0 z m -9.38341,-2.34187 c 43.342666,-7.04317 -36.61952,-7.34271 0,0 z M 934.2285,387.93037 c -2.8794,-6.00468 -0.1085,12.30368 0,0 z M 130.5,387.1644 c -1.24187,-3.94236 -3.58829,3.8072 0,0 z m 723.50002,0 c 3.6962,-3.75887 -7.9585,3.5134 0,0 z M 117,386.10538 c -2.88022,-1.90558 -2.3337,3.43479 0,0 z m 12,-1.15772 c 4.36119,-10.50014 -24.79835,7.54707 0,0 z m -43.999996,-0.34228 c -2.88022,-1.90558 -2.3337,3.43479 0,0 z m 19.594676,-2.59417 c -9.436056,-3.16276 -9.413976,3.36461 0,0 z m -10.104756,-0.86312 c -4.03371,-1.92807 -2.26555,3.47394 0,0 z m -15.49089,-1.23369 c -11.91597,-8.48956 -21.46589,5.1042 0,0 z m 8.00097,0.25 c -2.55494,-3.58745 -2.55494,3.58745 0,0 z m 35.187496,0.31689 c -4.3834,-1.43244 -0.43359,1.92488 0,0 z M 1092,379.60538 c -4.0484,-1.91543 -2.393,3.41442 0,0 z m -952.5,-5.40393 c -4.89317,-7.04697 -15.96997,2.05963 0,0 z m 722.95732,-1.10615 c -3.1875,-3.32686 -0.3651,4.92515 0,0 z M 82.361634,372.6644 c -10.28719,-6.27819 -8.95604,4.86894 0,0 z m 69.388226,-6.08347 c -5.10161,-0.59536 -0.45532,5.12073 0,0 z m -60.749856,0.81087 c -12.58112,-12.70933 -19.39173,2.68362 0,0 z m 56.489916,-0.24371 c -4.03371,-1.92807 -2.26554,3.47393 0,0 z M 103.5,364.1644 c -2.46629,-3.56228 -1.20936,3.65615 0,0 z m 797.50002,-0.55902 c -2.8802,-1.90558 -2.3337,3.43479 0,0 z M 120,363.27139 c -2.90707,-4.46133 -5.92303,1.83591 0,0 z m 16.61363,-0.38729 c -6.96989,-4.90025 -17.32568,3.23237 0,0 z M 114,361.87869 c -5.12451,-4.77489 -6.5063,4.69965 0,0 z m 11.54112,0.21918 c 0.35869,-6.0171 -6.79066,5.24867 0,0 z m 15.70888,0.40425 c -5.50683,-1.62308 -0.99942,1.75023 0,0 z m 11.17974,-3.22403 c -2.86659,-5.66077 -11.13185,4.39378 0,0 z M 145.5,358.1644 c -5.46559,-3.66091 -3.72048,3.75517 0,0 z m 15.81196,-0.0697 c 9.10707,-9.27702 -20.42914,1.35558 0,0 z m 720.19036,-0.30832 c -4.8185,-13.08339 -35.1611,-23.52388 -24.0027,-7.62214 11.2783,-4.62471 17.4245,8.56788 24.0027,7.62214 z m -25.2846,-9.77648 c 5.0427,-5.53097 4.1142,4.01786 0,0 z m 190.19878,5.51137 c -1.4845,-7.84052 -5.1745,6.01769 0,0 z m -156.41648,-4.29785 c -1.8976,-5.03541 -3.1061,3.62658 0,0 z M 1005,349.16442 c -2.5549,-3.58745 -2.5549,3.58745 0,0 z m -839,-1.61663 c -5.28772,-1.71624 -5.27667,3.08004 0,0 z m 729.00002,0.61663 c -2.5549,-3.58745 -2.5549,3.58745 0,0 z m 149.99158,-2.05263 c -26.9664,-5.02985 6.1753,6.51008 0,0 z M 886.48262,345.9314 c 12.8774,-9.56047 32.7385,-27.45048 16.081,-37.69361 -5.8747,-2.93906 -16.9915,4.72717 -26.9496,15.92663 -3.1297,8.20595 22.0647,14.1526 4.4935,9.64925 -23.7349,7.67803 -8.1931,10.931 6.3751,12.11773 z m -6.8159,-3.43365 c -3.3018,-8.64799 6.0929,3.21491 0,0 z m 95.31798,-0.58333 c -9.2917,-5.35467 -16.6802,-3.74859 0,0 z m -138.98468,-1.75 c -1.6378,-15.07139 -22.8771,-3.77834 0,0 z M 135,339.22344 c -3.30841,-4.20035 -6.87711,4.41517 0,0 z m -10.36431,-1.56518 c -16.40184,-5.15688 6.30715,4.93247 0,0 z M 156,338.28105 c -6.86625,-6.03176 -7.94593,4.0636 0,0 z m 6,-0.0108 c -6.50944,-2.84724 -6.51084,3.21777 0,0 z m 702.98472,-1.35583 c -0.7722,-5.23767 -2.9242,7.31225 0,0 z M 114.5,333.16442 c -3.84426,-3.58521 -2.56315,3.70389 0,0 z m 55.98992,-4.01631 c -4.03371,-1.92807 -2.26554,3.47393 0,0 z m 15.32442,-11.02778 c -32.31563,-9.97171 -27.87614,-0.1273 0.47736,0.75184 l -0.47736,-0.75184 0,0 z m 15.29953,-1.10997 c -15.07596,-0.57881 12.38425,2.83146 0,0 z M 163,310.1054 c -2.88022,-1.90558 -2.3337,3.43479 0,0 z m -3,-0.94098 c -2.46629,-3.56228 -1.20936,3.65615 0,0 z m 731.00002,-1 c -2.4663,-3.56227 -1.2094,3.65614 0,0 z m -110.5076,-2.0238 c 15.6577,-3.51265 -9.0287,-8.48374 17.3415,-9.35211 -20.8774,8.23762 -57.6374,-0.50473 -52.7736,-6.28107 5.3823,16.36309 29.0638,11.31072 35.4321,15.63318 z m -5.4924,-5.9762 c 1.2094,-3.65614 2.4663,3.56227 0,0 z m -24,4 c -2.5549,-3.58745 -2.5549,3.58745 0,0 z m -533.00002,-1 c -3.13127,-2.99739 -5.20326,3.94241 0,0 z m 637.00002,-3 c -2.4663,-3.56227 -1.2094,3.65614 0,0 z m -8.2049,-5.79547 c -11.2878,-1.66494 26.3157,-24.62203 -7.7762,-7.71846 -20.972,9.17749 8.5782,11.99511 7.7762,7.71846 z m 46.9059,3.38043 c -8.321,-5.29187 -10.384,4.43808 0,0 z m -31.201,-4.58496 c 32.1606,-23.63804 -13.5604,1.49163 0,0 z m -5.3251,-4.76321 c 19.1202,-19.40399 -23.0168,12.00661 0,0 z M 248.5329,287.56482 c -8.75778,-1.70754 2.97678,6.72428 0,0 z M 195,289.16442 c -2.55494,-3.58745 -2.55494,3.58745 0,0 z m 685.41252,0.39522 c 4.339,-8.18417 -12.604,3.80928 0,0 z M 254,288.16442 c -3.90318,-3.65313 -3.90318,3.65313 0,0 z m 550.41252,-1.60478 c 9.7584,-15.65936 -7.6904,1.13025 0,0 z m -603.2783,-3.11612 c -22.32468,-12.85437 -12.51987,0.98437 0,0 z m 639.6158,-1.12357 c -3.622,-11.98771 -36.9811,6.90993 0,0 z m 27.8732,-0.50322 c 1.8857,-7.67651 -11.0661,3.19859 0,0 z m -67.649,-4.58752 c -25.871,-13.61267 -18.5609,12.50348 0,0 z m 11.7333,0.55789 c -3.3786,-4.96999 -5.311,7.34822 0,0 z m -483.73815,-3.12268 c -3.50429,1.35954 -0.81465,5.58593 0,0 z M 335,277.09557 c 8.02542,-19.43846 8.00261,-42.89736 -3.14889,-7.30705 -5.14419,5.07657 -2.60044,10.63002 3.14889,7.30705 z m 514.18752,0.38574 c -4.3835,-1.43244 -0.4336,1.92488 0,0 z m 6.8125,-2.31689 c -2.4663,-3.56227 -1.2094,3.65614 0,0 z m -23.1447,-2.88739 c 8.3186,-14.91596 -15.6362,10.19159 0,0 z M 273.5,271.16442 c -2.56315,-3.70389 -3.84426,3.58521 0,0 z m 57,-1 c -3.58829,-3.8072 -1.24187,3.94236 0,0 z M 211,267.13967 c -10.43878,-9.04628 -16.17658,0.98656 0,0 z m 52,0.0248 c -6.95182,-3.9816 -5.71926,3.13838 0,0 z m 485.50002,-0.52371 c 38.5532,-0.89777 21.411,-10.33887 -3.4539,-3.77517 -20.6563,-9.88437 -7.2384,6.11445 3.4539,3.77517 z m 59,-2.47629 c -3.8442,-3.58521 -2.5632,3.70388 0,0 z m 35,0 c -1.242,-3.94233 -3.5882,3.80715 0,0 z m -592.50002,-3 c -3.84426,-3.58521 -2.56315,3.70389 0,0 z m -5,-1.96862 c -4.00798,-1.77513 -3.90414,3.2606 0,0 z m 67.60417,-1.76055 c -2.25334,0.93468 2.10148,3.95964 0,0 z m 439.39585,0.72917 c -2.4663,-3.56227 -1.2094,3.65614 0,0 z M 326,255.60545 c -2.88022,-1.90558 -2.3337,3.43479 0,0 z m 29,0 c -2.88022,-1.90558 -2.3337,3.43479 0,0 z m 377.23112,-0.66519 c -9.2145,-4.37376 -4.0199,5.84843 0,0 z m 30.9564,1.5411 c -4.3835,-1.43244 -0.4336,1.92488 0,0 z m 85.8125,-2.87591 c -3.1061,-3.62658 -1.8976,5.03541 0,0 z M 346.18333,251.9478 c -3.90405,-1.61571 3.37246,4.60181 0,0 z m 391.25069,1.10991 c 22.4966,0.82994 -8.9761,-8.7698 0,0 z M 317,251.60545 c -3.10612,-3.62658 -1.89758,5.03541 0,0 z m 433.48822,0.55902 c 1.9244,-10.19608 -9.2994,4.80356 0,0 z m 5.1546,-0.5 c 3.4262,-6.09 -7.0171,5.20787 0,0 z M 345,248.10545 c -2.88022,-1.90558 -2.3337,3.43479 0,0 z m 523.24202,-3.47302 c -5.8135,-2.95452 1.8214,7.69665 0,0 z M 334,240.9978 c -0.73798,-9.59254 -2.41341,10.93152 0,0 z m 533.33852,-2.18811 c -4.5569,-10.10791 -4.2948,7.73844 0,0 z m -607.0873,-3.70306 c -16.42603,-20.48637 -47.14456,0.64165 -25.00122,-1.11965 -7.59596,-14.17219 40.95767,13.22824 25.00122,1.11965 z M 290,236.05748 c -8.47857,-13.39074 -3.9483,10.10626 0,0 z m -9.42706,-1.65832 c 10.05013,-9.35189 -10.14265,2.76403 0,0 z m 574.42708,-0.79371 c -3.1061,-3.62658 -1.8976,5.03541 0,0 z M 270,232.16447 c -2.46629,-3.56228 -1.20936,3.65615 0,0 z m 27,-4.58333 c -3.49385,-4.45066 -3.5458,5.33902 0,0 z m -8.26372,-1.56575 c -1.1397,-5.18866 -1.30277,6.55266 0,0 z M 324,226.16447 c 5.80344,-17.11792 -13.58234,5.24146 0,0 z m -63,-6.42676 c -6.60312,-5.39277 -9.34488,-1.38078 0,0 z m 74.06574,-0.60842 c 5.64364,-7.55353 -16.59099,3.04862 0,0 z M 275.5,214.16447 c -6.58108,-3.64373 0.11692,2.85298 0,0 z m 80.27008,-4.56325 c -13.77275,4.34923 -1.48054,3.21134 0,0 z M 348,209.2478 c -4.3374,1.05957 30.20583,-32.80231 7.44124,-18.98823 -28.34151,-3.30074 16.84041,-23.93308 -12.8253,-11.30204 -9.61947,-9.91871 -10.78617,-16.56639 -26.10143,-27.79306 -49.31875,-43.6645 -30.14426,36.57532 11.26662,36.55986 11.29644,1.41295 12.04076,22.63468 20.21887,21.52347 z m -1,-5.52431 c 0.58932,-4.92806 3.06815,3.54506 0,0 z m -14.77083,-29.74646 c 3.63376,-5.24604 3.36214,4.44968 0,0 z M 323.75,170.64642 c -16.08592,-4.3953 17.97259,-1.09702 0,0 l 0,0 z M 362,206.16453 c 3.8659,-8.28222 -11.77337,5.29977 0,0 z m -76,-0.059 c -2.88022,-1.90558 -2.3337,3.43479 0,0 z m -6,-2 c -2.88022,-1.90558 -2.3337,3.43479 0,0 z m 519.56802,-1.62434 c 1.3502,-11.82147 -13.8879,6.45366 0,-2e-5 l 0,2e-5 z M 277.5,203.16453 c -4.60708,-4.44402 -9.35355,0.28463 0,0 z m 80.5,-1 c -3.84426,-3.58521 -2.56315,3.70389 0,0 z m 9.31524,-4.14374 c -8.70668,-1.54282 2.61567,7.53899 0,0 z m 51.10115,-4.10626 c 13.28032,-7.36034 19.15624,-49.71936 3.21578,-12.3344 0.73925,0.278 -12.31242,20.82601 -3.21578,12.3344 z M 291,192.10551 c -3.15956,-7.17967 -10.79585,-0.88093 0,0 z m 29.66228,-2.19098 c -1.75023,0.99942 1.62308,5.50683 0,0 z m -36.40699,-1.88177 c -4.88076,-5.93997 -0.74624,10.72944 0,0 z M 403,186.28697 c -2.74239,-7.32092 -4.47862,3.10838 0,0 z m 33.3963,-3.87244 c 29.52131,-34.79818 -20.92066,9.69894 0,0 l 0,0 z m -19.55048,0.67167 c 6.62766,-16.40121 -8.86937,10.65462 0,0 z m 378.5158,-5.42167 c -2.3735,-5.24699 -0.8654,5.28209 0,0 z m -373.94453,-6.75 c -1.64339,-14.65817 -3.27918,17.8489 0,0 z m 15.51283,-0.20669 c 6.58812,-12.22823 -8.509,11.37696 0,0 z m -73.74242,2.77358 c -4.3834,-1.43244 -0.43359,1.92488 0,0 z m -27.03879,-6.39647 c 4.42467,-11.84625 -10.8405,1.45816 0,0 z M 343,166.16453 c -2.41393,-6.95128 -2.41393,6.95128 0,0 z m 83,-4 c -2.56315,-3.70389 -3.84426,3.58521 0,0 z m -27,-3.05902 c -2.88022,-1.90558 -2.3337,3.43479 0,0 z m 379.00002,-3 c -2.8802,-1.90558 -2.3337,3.43479 0,0 z M 418.5,155.16453 c -2.65267,-3.8567 -4.98836,3.6301 0,0 z m -69.09967,-9.39914 c -6.17497,-4.50331 0.45579,6.31163 0,0 z M 423,142.10551 c -3.10612,-3.62658 -1.89758,5.03541 0,0 z m 21.5,-1.74051 c 10.75039,-7.84891 -29.21499,5.42656 0,0 z m 18.5,-0.75949 c -2.88022,-1.90558 -2.3337,3.43479 0,0 z m 302.69422,-2.97258 c -26.1906,-17.02517 -41.746,-5.37219 -4.1942,0.9383 l 5.6005,1.35577 -1.4063,-2.29407 0,0 z m -383.02755,-0.92441 c -2.5993,-3.58039 -1.5222,4.73933 0,0 z m 357.52085,-0.2271 c -4.3835,-1.43244 -0.4336,1.92488 0,0 z m -302.42173,-3.62128 c 9.89233,-2.1391 -14.28219,1.06003 0,0 z M 350,130.60551 c -2.88022,-1.90558 -2.3337,3.43479 0,0 z m 23.5,0.55902 c -2.46629,-3.56228 -1.20936,3.65615 0,0 z M 348,127.60551 c -2.88022,-1.90558 -2.3337,3.43479 0,0 z m 381.47482,-1.4003 c -3.824,-13.60209 -8.4412,0.61845 0,0 z m 64.5252,0.60329 c -22.1044,-18.94423 -27.7132,-10.94894 0,0 z M 460,125.3312 c -5.57548,-4.80275 -35.04171,1.39092 0,0 z m 23.75,0.144 c -7.74545,-1.55624 -1.48708,1.6085 0,0 z M 398,122.36453 c -5.47639,-10.63951 -2.97777,3.66589 0,0 z m 82.5,-1.2 c -2.65267,-3.8567 -4.98836,3.6301 0,0 z m 291.50002,0 c -2.4663,-3.56227 -1.2094,3.65614 0,0 z m -320.00002,-2 c -2.56315,-3.70389 -3.84426,3.58521 0,0 z m 245.46312,-2.76068 c 20.7322,-14.34372 -20.2125,3.21056 0,0 z m 28.5369,-3.29834 c -2.8802,-1.90558 -2.3337,3.43479 0,0 z M 377.5,112.16453 c -2.46629,-3.56228 -1.20936,3.65615 0,0 z m 124,0 c 2.61626,-3.98073 -8.66273,4.19272 0,0 z m 267.38312,-1.09338 c -23.5328,-3.21803 -23.5067,3.23887 0,0 z M 427.2,106.96453 c -3.9641,-2.20036 1.70419,7.67645 0,0 z m 312.80002,2.2 c -4.1777,-2.65048 -6.1642,3.69946 0,0 z M 425,108.23596 c -11.98169,-11.946381 -1.67993,3.39095 0,0 z m 265.44292,-4.16378 c -10.4518,-3.67416 1.6716,10.5943 0,0 z m 66.4904,3.43895 c -7.9953,-8.214771 -27.0062,6.92262 0,0 z m -268.49808,-1.45138 c -7.36982,-4.55698 -1.52449,6.01589 0,0 z m 249.01568,-0.89522 c 23.6213,-11.004901 -13.1404,2.77156 0,0 z m -339.95092,1 c -3.58829,-3.8072 -1.24187,3.94236 0,0 z m 328.50002,0 c -3.7205,-3.75517 -5.4655,3.66091 0,0 z m -354.00002,-1 c -2.46629,-3.56228 -1.20936,3.65615 0,0 z m 138,-1.5 c 2.37969,-5.215001 -12.03065,5.7087 0,0 z m 154.00002,-3.05902 c -3.0681,-3.545061 -0.5894,4.92806 0,0 z M 393.06296,98.282179 c -12.01921,-14.23907 -9.14193,5.942741 0,0 z m 25.4635,-0.92452 c -4.34968,1.18781 -1.93312,2.830091 0,0 z m 299.96646,-0.18168 c -2.5308,-1.82883 -3.9812,3.221421 0,0 z M 520.5,96.164529 c -8.24021,-6.95083 -12.25372,3.56908 0,0 z m -109.98273,-2.62936 c -25.60343,-15.504673 -8.71807,7.056721 0,0 l 0,0 z m 6.09845,0.8166 c -14.30389,-9.41426 1.33385,4.90137 0,0 z m 311.3843,-3.74626 c -2.8802,-1.90558 -2.3337,3.43479 0,0 z m -290.00002,-1 c -3.10612,-3.62658 -1.89758,5.03541 0,0 z m 91.1875,0.87591 c -4.3834,-1.43244 -0.43359,1.92488 0,0 z m 107.47672,-0.88411 c -0.5715,-8.842413 -5.4996,7.26339 0,0 z m 102.3358,-1.04941 c -5.2877,-1.71624 -5.2767,3.08004 0,0 z m -312.63839,-0.88337 c -2.37355,-5.246993 -0.86541,5.2821 0,0 z m 7.63837,-0.75 c -6.23012,-5.023753 -3.21109,3.8504 0,0 z m 251.60422,-2.47917 c -2.2536,0.93472 2.1016,3.95961 0,0 z m -59.2355,-1.830813 c -9.4442,-6.70545 2.0796,10.128253 0,0 z M 438,82.605506 c -3.10612,-3.62658 -1.89758,5.035413 0,0 z m 312.67962,-0.064 c 20.9332,-13.14086 -10.94,0.12054 0,0 z m -326.1863,-3.38778 c -5.40275,0.31452 -0.40301,7.782153 0,0 z M 450,79.664526 c -4.09738,-5.38165 -2.34355,5.094063 0,0 z m 122.5,-0.5 c -5.08352,-3.9835 1.40158,3.6344 0,0 z m 113.00002,0 c -3.5882,-3.80715 -1.242,3.942333 0,0 z m -210.9946,-0.99794 c 7.81617,-8.53832 -42.90571,-26.35439 -7.33183,-7.26939 1.86599,2.36861 1.69974,8.6013 7.33183,7.26939 z m 142.4946,-0.50206 c -7.0983,-5.67782 3.4861,5.1938 0,0 z M 596,77.771516 c -3.90414,-3.2606 -4.00798,1.77513 0,0 z m -131.23207,-2.60699 c -5.95533,-7.36636 2.45024,7.16587 0,0 z m 32.23207,0.5 c -7.38336,-8.78261 -1.3248,4.93203 0,0 z m 186.76342,-2.31594 c -6.9331,-10.69354 3.7682,12.000423 0,0 z m -48.2634,-0.18406 c -8.4224,-7.58591 3.7505,7.29761 0,0 z M 450,72.852586 c -12.43007,-13.94462 -11.05615,4.17187 0,0 z m 313.00002,-1.24708 c -2.8802,-1.90558 -2.3337,3.43479 0,0 z m -57.6185,-1.99292 c -0.9913,-3.67792 -2.058,5.09091 0,0 z m 4.806,-0.13117 c -4.3835,-1.43244 -0.4336,1.92488 0,0 z m -33.1875,-2.4126 c -3.4554,-18.2054 -8.4618,-1.50596 0,0 z m 4,0.0957 c -2.4663,-3.56227 -1.2094,3.65614 0,0 z m 31.3421,-1.44907 c -2.9395,-3.51708 -2.7887,4.70489 0,0 z m -206.84767,-1.55706 c -7.60741,-5.71058 5.30661,6.49364 0,0 z m -24.78791,-5.36331 c -9.42213,-22.35443 -5.8122,13.56648 0,0 z m 232.56448,1.50906 c -7.1631,-12.16272 -2.6349,7.70938 0,0 z M 540,60.164516 c -2.46629,-3.56228 -1.20936,3.65615 0,0 z m 144.65492,-2.45687 c -4.5209,-5.73674 1.0417,6.5959 0,0 z m 14.0618,-2.67803 c -5.9237,-29.30918 -3.248,18.9698 0,0 z M 488,57.164516 c -6.38596,-6.86518 1.64041,6.58559 0,0 z m 38.97776,0.75 c -11.11254,-19.10299 -14.43649,0.007 0,0 z M 454,56.281146 c -3.98977,-4.21407 -6.14318,1.55285 0,0 z m 255.06952,-3.11663 c 11.7065,-26.2545 -8.0453,13.93147 0,0 z m -197.052,-1.47165 c -24.28146,-22.11693 -5.35873,13.17296 0,0 l 0,0 z m 43.48799,0.0385 c -14.7372,-11.1119 11.6978,11.6462 0,0 z m 137.16521,-4.81747 c -5.7276,-32.03617 -6.4407,22.39898 0,10e-6 l 0,-10e-6 z m -10.6707,4.69156 c -2.8802,-1.90558 -2.3337,3.43479 0,0 z m -14,-0.88196 c -1.6092,-6.714 -2.5355,5.31584 0,0 z M 473,49.664476 c -0.86541,-5.2821 -2.37355,5.24699 0,0 z m 108.18856,-0.53896 c -16.54911,-17.74589 0.31922,6.70046 0,0 z M 594.5,46.206406 c -14.92474,-12.49417 9.65112,12.58549 0,0 z m 59.91652,1.6012 c -12.1173,-18.00696 -4.0637,7.51754 0,0 z m 25.5835,0.35687 c -4.1232,-7.23863 1.2369,7.10969 0,0 z M 479,48.377276 c -5.40452,-3.34579 -3.75954,2.99411 0,0 z m 136.35702,-4.4628 c -13.8526,-24.62892 -28.43484,-26.97779 -4.357,-2.93948 -6.6133,-3.38884 8.0159,7.75427 4.357,2.93948 z m 20.5527,-3 c -20.3208,-27.95356 4.1666,9.42148 0,0 z m -109.45243,-1.8191 c -3.18754,-3.32686 -0.36508,4.92516 0,0 z M 557,40.650906 c -11.13535,-21.65237 -18.11916,-5.11475 0,0 z m 105.50002,-0.48643 c -5.0835,-3.98348 1.4015,3.63438 0,0 z M 581,37.223496 c -2.73716,-5.63079 -3.59052,3.27029 0,0 z m 63.96752,-2.11971 c -5.466,-6.94458 1.6893,8.17503 0,0 z m -102.52366,0.77498 c -5.73991,-5.20997 -2.6086,4.41211 0,0 z m 83.32696,0.0982 c -3.1986,-5.50199 -2.0362,4.61234 0,0 z m 31.8334,-2.54167 c -4.889,-0.0237 2.7247,5.17532 0,0 z m -72.0255,-1.04464 c -5.00107,-4.58049 5.20073,7.18539 0,0 z m 36.5454,-1.49286 c -3.3236,-2.58822 3.1622,5.45447 0,0 z M 537,31.355596 c -4.90832,-12.64574 -2.7123,3.99502 0,0 z m 81.15002,-1.97446 c -17.69394,-24.45309 -14.2959,-0.8489 0,0 z m 23.2138,1.28907 c -3.9955,-3.63464 -0.4395,5.05774 0,0 z m 13.6362,-0.44672 c -3.9206,-7.64267 -2.8021,5.72818 0,0 z m -93.54273,-2.12812 c -3.18754,-3.32686 -0.36508,4.92516 0,0 z m 21.57789,0.13484 c -6.70506,-25.11755 -14.62362,-9.30111 0,0 z M 543.5,23.164466 c -10.24696,-11.20992 -6.54865,1.85787 0,0 z m -3.5,-6.87756 c -3.37331,-8.80552 -8.65657,5.41735 0,0 z M 469,718.60545 c 3.10612,-3.62658 1.89758,5.03541 0,0 z m -4.75,-2.10326 c -0.71458,-14.29297 1.02534,-23.48811 2.80483,0.10813 L 464.25,716.50219 z M 327,713.16447 c 2.55494,-3.58745 2.55494,3.58745 0,0 z m -3,-8 c 2.55494,-3.58745 2.55494,3.58745 0,0 z m -3.88632,-5.63293 c -14.78609,-14.30302 -27.10932,-36.8339 -46.37205,-53.12696 -18.67689,-23.31949 -57.77807,-41.74796 -45.56962,-48.89722 15.13775,1.26251 24.09425,13.94313 18.35413,11.63541 13.41056,-5.32929 -3.66479,11.78803 13.60208,14.85258 18.91662,14.87682 33.64305,31.37597 47.3412,48.39943 -3.05272,-9.97799 22.31408,35.18584 12.64426,27.13676 z M 258.25,698.60582 c -4.32945,-8.54433 5.5079,3.95819 0,0 z M 231,698.16447 c 2.55494,-3.58745 2.55494,3.58745 0,0 z m -8.38821,-6.04951 c -20.7745,-18.22872 15.83172,6.04915 0,0 l 0,0 z M 311,691.60545 c 3.10612,-3.62658 1.89758,5.03541 0,0 z m 545.50002,-4.44098 c 1.242,-3.94233 3.5882,3.80715 0,0 z m -630.48471,-6.25 c 0.77243,-5.2376 2.92405,7.31226 0,0 z m -43.52239,-1.73855 c -12.42317,-10.00626 11.96247,1.75594 0,0 z m 14.48702,-0.53562 c -2.27227,-8.68242 6.99344,6.82887 0,0 z M 220,675.16447 c 1.20936,-3.65615 2.46629,3.56228 0,0 z m -5.12756,-5.75 c -3.24849,-4.97037 5.68859,6.3135 0,0 z m -71.32193,-5.19872 c -11.9424,-14.9358 18.16754,15.37447 0,0 z m 728.16851,-0.082 c -15.526,-0.85388 -36.4017,-15.749 -25.8851,-21.97423 -5.0025,-27.82004 7.8824,6.20102 22.3448,15.95092 3.4366,3.35375 16.6035,2.44929 3.5403,6.02331 z M 345,659.22349 c 0.37557,-6.53914 2.85887,5.36115 0,0 z m 167.07895,-0.47569 c 0.44611,-4.31138 1.44314,2.66329 0,0 z m 35.3754,-0.83333 c 5.18391,-34.64356 -5.41466,11.94376 -9.29984,-22.34549 -15.18151,5.18703 6.35107,-41.35823 3.32199,-3.16425 -3.31654,-16.20657 33.58333,-8.74376 28.3801,-35.45473 10.57669,-6.28761 2.40529,44.47697 -4.85638,34.71447 2.37579,16.23629 -4.36544,19.39157 -17.54591,26.25 l 4e-5,0 z m 5.54565,-2.75 c -2.46629,-3.56228 -1.20936,3.65615 0,0 z m -1.01531,-25.30902 c -2.39483,-7.26766 -2.3298,13.55419 0,0 z M 544,656.72349 c 2.3337,-3.43479 2.88022,1.90558 0,0 z m 261.19672,-3.32969 c -21.0525,-19.24181 -0.8034,-28.77122 2.9716,-38.10255 2.8229,-2.10992 9.63,8.09316 4.2294,18.41756 8.6089,31.65199 -10.6693,-3.7463 -5.9117,21.95566 l -1.2893,-2.27067 0,0 z m -3.1967,-13.22933 c -2.5549,-3.58745 -2.5549,3.58745 0,0 z m -2,-4 c -3.8442,-3.58521 -2.5632,3.70388 0,0 z m 6,-0.37756 c -3.3791,-4.0566 -4.7286,-2.76203 0,0 z m -6,-2.62244 c -2.5549,-3.58745 -2.5549,3.58745 0,0 z m 14,-5.05902 c -2.26,-7.01236 -1.6072,8.41049 0,0 z M 510,653.16447 c 2.56315,-3.70389 3.84426,3.58521 0,0 z m 285.96202,-0.25 c -1.9493,-1.32245 -28.8793,-3.91938 -23.9401,-15.7382 17.6261,-10.97976 20.2337,4.17102 23.9401,15.7382 z m -11.462,-5.75 c -2.4663,-3.56227 -1.2094,3.65614 0,0 z m 2.107,-3.58179 c -2.5787,-11.23077 -6.0765,7.1441 0,0 z m 13.4719,9.16512 c 0.4461,-4.31139 1.4435,2.66334 0,0 z m -296.25699,-2.08333 c -0.16759,-11.49831 2.19454,10.34086 0,0 z m -174.50255,-0.75394 c -4.49452,-7.39201 1.02584,-3.36691 2.59966,1.66824 l -2.59966,-1.66824 z m 137.79073,-10.98231 c -1.24803,-15.63026 -1.5155,-45.25928 -5.8456,-11.16591 -4.0149,-27.71636 -2.52019,-42.4214 9.57066,-16.0802 1.56528,3.91576 -0.24797,63.061 -3.72506,27.24611 z m -132.01319,6.85303 c -1.63781,-7.35512 6.17373,4.69716 0,0 z m 29.98203,-0.0334 c 0.44611,-4.31138 1.44314,2.66329 0,0 z m 140.69021,-0.53966 c -0.18952,-9.89141 2.28739,8.16927 0,0 z m 357.81496,0.31489 c -0.7546,-4.14553 4.8208,5.54844 0,0 z m -47.9606,-1.89722 c -2.6224,-7.31939 3.6842,4.68466 0,0 z m -467.04057,-0.32713 c -0.84454,-5.86196 -3.04125,-2.55298 0,4e-5 l 0,-4e-5 z m -24.6844,-0.38426 c -10.8573,-16.45093 5.41767,-11.40017 0,0 z m 38.0061,-4.75 c -10.68617,-16.75082 -8.17068,-29.35953 -0.93299,-20.64108 4.74971,-20.90049 -1.56978,-23.5147 -15.97316,-8.85985 8.41992,-7.68874 -4.93322,-36.94008 10.61719,-11.18184 -4.98434,-24.39943 11.67054,-0.81405 2.38431,-20.51723 10.34331,-3.91163 17.03302,5.04938 24.73586,-1.99785 -14.75196,-40.99549 15.45162,24.49027 12.09309,-19.75215 -0.38102,2.06399 -8.9124,43.13504 13.90097,36.83226 -15.51667,12.70651 -22.49996,-23.30661 -28.72992,-0.54827 -18.27866,1.62327 -11.42821,7.56493 -6.96032,19.15654 -14.83181,-23.89687 -6.90499,49.21215 -11.13503,27.50947 z m 13.83434,-52.25774 c 3.41743,-7.03358 -15.66665,7.72417 0,0 z m 158.90049,56.56389 c -2.17584,-5.07021 5.87716,0.47694 0,0 z m -21.4746,-4.13775 c -14.90178,-21.91315 16.57868,13.91544 0,0 z M 344,639.22349 c 2.3337,-3.43479 2.88022,1.90558 0,0 z m 472.71022,-2.05902 c 0.9862,-7.45239 3.6104,7.22916 0,0 z M 568.07895,636.7478 c 0.44611,-4.31138 1.44314,2.66329 0,0 z m -217,-1 c 0.44611,-4.31138 1.44314,2.66329 0,0 z m 148.08179,-0.91222 c -6.53059,-8.21507 8.52612,-12.90952 2.75624,1.69948 l -2.75624,-1.69948 0,0 z m -160.10215,-2.25615 c -8.34919,-11.19554 15.62829,10.42587 0,0 z m 495.44143,1.58504 c 1.2094,-3.65614 2.4663,3.56227 0,0 z M 282,630.83114 c -6.22209,-8.54847 4.54517,1.82761 0,0 z m 48.44615,0.2462 c 0.33005,-7.37208 3.40182,3.56293 0,0 z M 345,627.01468 c -4.42496,-13.93344 -29.84584,-21.99124 -21,-30.88159 11.11714,2.27325 29.13944,38.5796 21,30.88159 z m 0,-3.24322 c -0.45576,-2.68504 -5.91336,0.8962 0,0 z m -30.33513,3.21947 c 0.73427,-10.14002 6.44014,7.08874 0,0 z m 16.91784,-3.09697 c -26.72708,-30.95047 14.1715,6.5172 0,0 l 0,0 z m -6.47752,1.89726 c -16.33639,-23.81383 7.35933,0.14695 0,0 z M 274,625.23186 c -10.67462,-5.93631 7.2208,0.6776 0,0 z m 220.38511,-2.81739 c -0.29651,-16.32084 -24.11134,-58.4017 2.59958,-21.09879 -16.83385,-13.52426 7.13068,35.39154 -2.59958,21.09879 z m 267.07441,1.68453 c -13.133,-7.7484 14.1559,-2.24172 0,0 z m 57.5405,-0.93453 c -8.805,-1.55281 -4.063,4.73281 0,0 l 0,0 z m -507.77225,-1.57441 c -0.92303,-13.08129 5.43797,5.56076 0,0 z M 587,620.72349 c 1.89758,-5.03541 3.10612,3.62658 0,0 z m 166.00002,-1.49687 c 4.6183,-6.69666 3.2636,5.00392 0,0 z m 21.5,0.93785 c 1.242,-3.94233 3.5882,3.80715 0,0 z m -33,-1 c 1.2094,-3.65614 2.4663,3.56227 0,0 z M 273.66667,618.4978 c -3.22571,-6.4664 3.59313,0.24675 0,0 z M 506.75,615.30336 c -9.03656,-18.2531 -1.17692,-56.0647 -0.25445,-21.40019 -7.21817,2.01578 12.39536,33.46299 0.25445,21.40019 z m 18.1565,2.67013 c -5.78804,-19.7077 11.13753,-10.43981 0,0 z m 246.09352,-1.30902 c -1.6081,-5.57787 6.2458,5.84011 0,0 z m 61.6486,-0.91347 c -23.9007,-22.12281 -7.0345,-28.24018 1.3514,-5.58653 0.4013,1.60039 3.7675,10.92916 -1.3514,5.58653 z m -570.98195,0.7468 c -2.10541,-6.68039 5.52711,3.97315 0,0 z m 107.8711,-2.27222 c 2.05138,-4.68866 5.55746,1.70416 0,0 z m 359.21225,0.24956 c -19.6526,-8.79367 -23.4232,-21.5129 -7.5538,-8.00146 7.3438,-3.49639 12.0083,8.05743 7.5538,8.00146 z m 7.8735,-0.84933 c -2.6224,-7.31939 3.6842,4.68466 0,0 z m 60.2528,-1.38633 c -9.4996,-15.21988 9.2297,8.67711 0,0 z M 281.5,612.16448 c 1.24187,-3.94236 3.58829,3.8072 0,0 z m 31.95888,-0.0665 c 0.12426,-7.53754 4.65455,6.00453 0,0 z m 35.76549,-2.1835 c -1.12952,-9.11952 3.97903,7.20422 0,0 z m 413.74815,-0.45908 c -14.9913,-13.70369 10.6215,6.24709 0,0 z m -28.4298,-0.22182 c 6.4436,-1.36713 3.0785,-0.71537 0,0 z m -461.08908,-2.8191 c -12.23789,-17.76833 -16.61197,-22.37694 -39.78351,-31.83276 26.90465,1.16064 37.94847,12.93992 41.32023,33.58276 l -1.53672,-1.75 0,0 z m 105.62531,0.33333 c 0.44611,-4.31138 1.44314,2.66329 0,0 z m 120.50075,-0.773 c -4.79211,-8.94027 8.28458,7.62635 0,0 z m -215.62082,0.33635 c -22.08812,-14.436 25.62901,3.63897 0,0 z m 71.70779,0.18665 c -3.61753,-10.55434 10.39915,3.17043 0,0 z m 16.98292,-5.1052 c -1.08233,-20.26642 9.02938,12.89202 0,0 z m 381.85043,0.77187 c 2.6527,-3.85668 4.9884,3.63009 0,0 z m 38,0 c 1.2094,-3.65614 2.4663,3.56227 0,0 z m -574.3689,-1.34201 c -1.22007,-9.25674 9.8506,7.39124 0,0 z m 120.94535,-1.5506 c -10.54288,-21.28256 8.43529,1.92247 0,0 z m 44.21509,1.14261 c -7.38413,-9.58699 9.2687,6.59224 0,0 z m 80.78739,-0.66667 c 0.44611,-4.31138 1.44314,2.66329 0,0 z m 285.21457,-2.23802 c -23.6899,-11.69045 -38.3862,-42.25822 -60.1847,-38.38324 15.7788,-1.26688 32.3005,-2.57202 36.3964,9.44636 8.9521,4.64191 26.2367,27.23638 23.7883,28.93688 z M 393.5,597.16448 c 1.20936,-3.65615 2.46629,3.56228 0,0 z m -177.5,-1 c 2.55494,-3.58745 2.55494,3.58745 0,0 z m 4.91297,-0.71011 c -8.23677,-11.38888 13.03377,0.45798 0,0 z M 211.5,595.16448 c 1.20936,-3.65615 2.46629,3.56228 0,0 z m 354.5,0.059 c 2.33382,-3.4348 2.88011,1.90566 0,0 z m 134.34512,-0.60215 c -0.5615,-8.93033 6.9807,6.50259 0,0 z M 318,593.16448 c 2.55494,-3.58745 2.55494,3.58745 0,0 z m 179.07095,-1.41451 c -3.83421,-5.78291 6.01779,1.97059 0,0 z m -37.34178,-1.18966 c -2.69092,-18.01098 2.11783,-3.15018 0,0 z m -127.0365,-1.75435 c 1.07064,-7.137 2.99897,3.28497 0,0 z m 362.30735,-0.58246 c 2.3337,-3.43479 2.8802,1.90558 0,0 z m -203.34503,-1.88776 c -12.74803,-17.67908 9.6502,6.69155 0,0 z m 200.34503,-1.17126 c 2.5549,-3.58745 2.5549,3.58745 0,0 z m 117.25,-0.22049 c -8.289,-7.54595 11.4243,4.59478 0,0 z m 10.4438,-0.41899 c -1.7785,-7.142 6.797,3.78863 0,0 z m -415.57511,-4.80334 c -3.97355,-25.77802 5.63717,15.83904 0,0 z m 279.49631,1.56991 c 6.5134,-7.39563 13.9066,3.5541 0,0 z M 237,580.16448 c 1.20936,-3.65615 2.46629,3.56228 0,0 z m 321,0 c 2.55494,-3.58745 2.55494,3.58745 0,0 z m 180.00002,-0.94098 c 2.3337,-3.43479 2.8802,1.90558 0,0 z m -58,-2.52764 c 4.1193,-3.54361 2.1716,4.98352 0,0 z m 128,0.0276 c 1.8977,-5.03535 3.106,3.62669 0,0 z M 481.75,573.98292 c -17.23203,-20.56222 13.70278,9.94128 0,0 z m -23.30385,1.09439 c -0.0987,-7.52617 3.99106,4.03846 0,0 z m -229.7523,-1.55235 c -0.73324,-8.00978 6.02555,3.6441 0,0 z m -3.95828,-0.95829 c -30.81921,-2.67723 14.11607,-9.37422 0,0 z M 547,571.16448 c 2.55494,-3.58745 2.55494,3.58745 0,0 z m -293.79354,-1.09176 c -23.96115,-8.50853 -66.72386,-16.452 -64.02934,-19.25455 1.73643,-7.49837 26.89085,6.33917 38.07288,7.75984 0.76454,-4.70926 53.01722,15.20145 25.95646,11.49471 z M 366,570.16452 c 2.55494,-3.58745 2.55494,3.58745 0,0 z m 172.47301,-0.95633 c 5.53982,-1.73329 3.54167,3.26103 0,0 z m -326.93976,-3.98987 c -0.15281,-5.74972 13.42682,5.34329 0,0 z m 584.46677,0.0612 c 5.4787,-7.84664 -5.3048,-1.62356 0,0 l 0,0 z M 485,562.72353 c 4.95291,-1.76485 0.71486,-1.53225 0,0 z m -279.54377,0.37016 c -0.41489,-6.14378 5.11341,2.36936 0,0 z m 287.30952,-1.67918 c -2.58804,-21.20714 5.24574,9.04228 0,0 z M 201,561.16451 c 2.55494,-3.58745 2.55494,3.58745 0,0 z m 320,0 c 2.55494,-3.58745 2.55494,3.58745 0,0 z m 273.20632,-4.37765 c 12.0904,-8.80646 -9.4798,8.95366 0,0 z m -636.84368,-1.40912 c -7.8228,-7.2965 15.70752,8.3448 0,0 z M 248,556.64546 c -13.89346,-4.76109 -22.90012,-1.56455 -35.87779,-10.01974 -16.14745,-11.69618 -7.54567,-19.18415 -40.63018,-25.09278 5.87055,24.23388 7.69273,-6.31823 19.9463,20.80146 -19.65557,5.24852 -16.13179,-8.24379 -29.15267,-6.47431 -36.39973,-4.2212 28.63231,-0.26989 -0.51028,-16.78036 2.60851,12.97325 -41.60852,18.65022 -26.98152,3.97789 -7.49869,-4.67169 -47.275176,2.49614 -6.79676,-6.89131 -18.13137,-19.7173 -60.101076,3.6667 -86.421726,7.47127 2.61515,-5.16963 88.987536,-24.08629 36.82513,-16.92451 -30.78297,12.96623 -10.37592,-13.75275 -23.40342,-7.51764 -22.32104,6.92063 -49.062074,9.01702 -15.44398,0.30918 22.24233,-10.05354 57.84049,-4.61171 19.4469,5.74206 31.06919,3.50355 33.24937,-20.36333 30.21075,-16.22875 23.408156,6.39248 6.72023,22.94172 22.789246,7.31325 14.57841,8.1702 3.63081,-3.98505 17.13321,-7.47571 -13.24823,1.55919 -28.57861,7.9315 -35.874636,-1.41326 -42.83318,-11.04426 27.887146,4.34148 0.31884,-16.90909 9.368846,11.56712 34.097336,20.75153 20.266096,2.75618 24.76696,18.2231 11.84335,-1.6264 43.15649,10.19678 23.69981,-0.83615 30.22015,-2.71508 17.02927,9.42844 14.56995,5.34132 24.50992,44.80448 30.75533,30.25 5.74489,16.21849 15.94485,7.4539 16.18804,6.64291 29.02404,19.23256 -24.01492,7.83075 14.97002,19.26431 3.16428,-1.74858 29.12961,9.46564 12.05734,7.57373 z m -61.25,-16.48095 c -1.58634,-11.8468 -11.11168,4.98231 0,0 z m -33.15428,-14.26239 c -0.22358,-28.75682 -39.86393,0.075 0,0 z M 141,523.66451 c -3.39488,-7.72743 -2.90461,6.36476 0,0 z m 16.6,-0.1 c -3.8889,-4.59876 1.53557,6.93047 0,0 z M 152,513.10549 c -2.88022,-1.90558 -2.3337,3.43479 0,0 z m 29.77083,-1.75348 c -3.36214,-4.44968 -3.63376,5.24604 0,0 z M 186,510.66451 c -2.37355,-5.24699 -0.86541,5.2821 0,0 z m -26.75,-0.16228 c -5.50683,-1.62308 -0.99942,1.75023 0,0 z m 9.23992,-1.35403 c -4.03371,-1.92807 -2.26554,3.47393 0,0 z M 152,508.16451 c -6.5773,-3.70141 -6.5773,3.70141 0,0 z m 22.55974,-7.54917 c -42.58291,-38.63255 -12.17254,8.76619 0,0 z M 118.5,504.16451 c -3.58829,-3.8072 -1.24187,3.94236 0,0 z m 38.07143,-1.57143 c -11.82873,-14.12409 -21.97932,-1.66123 0,1.57191 l 1.07143,-0.25 -1.07143,-1.32143 0,-4.8e-4 z M 161.5,501.16451 c -2.46629,-3.56228 -1.20936,3.65615 0,0 z m -29,-2.18934 c -15.14597,3.78112 1.8923,-1.01682 0,0 z m 7,1.18934 c -7.0016,-3.70341 -4.91149,3.7796 0,0 z m 7.43011,-5.91876 c -7.12692,-15.09785 -19.79678,2.74241 0,0 z m 334.06075,62.40775 c -1.3081,-4.81888 6.68924,3.11819 0,0 z m 191.00916,0.23927 c -14.4083,-7.92512 19.5987,4.10461 0,0 z m 100,0.33913 c -21.1375,-2.49538 -56.5058,-74.61571 -23.6513,-40.45739 9.6326,22.048 15.8768,12.41539 23.0564,33.05117 9.055,3.8982 3.5444,6.38963 0.5949,7.40622 z m -5.7033,-13.46436 c -8.3044,-7.25063 5.5639,7.76938 0,0 z m -21.2967,-13.60303 c -2.4663,-3.56227 -1.2094,3.65614 0,0 z m 3,-8.94098 c -3.0676,-9.32385 -2.2829,6.83406 0,0 z m -360.00002,35 c 1.89758,-5.03541 3.10612,3.62658 0,0 z m 168.02896,-0.02 c -3.31053,-6.93474 7.70977,4.7016 0,0 z m 133.98666,-2.09645 c -28.8811,-12.87728 18.7618,3.58875 0,0 z M 178,553.16451 c -1.60193,-7.42758 6.32675,7.30175 0,0 z m 485.75002,1.25074 c -7.0089,-6.2131 9.6522,1.69323 0,0 z m -514.57067,-2.28787 c -11.56789,-9.85808 14.66048,6.23869 0,0 z m 494.32067,1.03713 c 3.5882,-3.80715 1.242,3.94233 0,0 z m -252.42973,-1.69098 c 2.89654,-9.19167 0.4537,5.93348 0,0 z m 95.53449,0.10345 c -1.71999,-7.92523 6.96074,3.20738 0,0 z m 104.91872,0.7777 c -3.75041,-10.84229 11.92292,3.04931 0,0 z m 65.91762,-0.77181 c -4.3637,-4.68924 9.5258,4.30278 0,0 z M 493,550.22353 c 1.77691,-6.78707 3.09158,5.40584 0,0 z m 106,-0.55902 c 3.83242,-5.3812 3.83242,5.3812 0,0 z m 11.54272,0.5691 c 0.3651,-4.92516 3.1875,3.32686 0,0 z m 6.542,-0.8191 c -10.0958,-13.20747 -38.28851,-2.58063 -53.02533,-10.38533 17.90269,-3.74251 46.67953,-9.41159 41.69063,-4.30177 8.6671,-0.21878 -1.4222,8.67384 11.3347,14.6871 z m 29.1653,1.01276 c -20.3354,-8.59786 26.7814,3.31541 0,0 z m -42.25,-1.26276 c 1.2094,-3.65614 2.4663,3.56227 0,0 z m 21.5,0 c 3.8442,-3.58521 2.5632,3.70388 0,0 z m -441.04114,-1.06653 c -0.47789,-5.53043 5.23074,3.90342 0,0 z M 537.573,547.64304 c -5.57617,-6.88927 8.79377,5.73966 0,0 z m 98.42702,-0.47853 c -47.21574,-14.11165 1.4914,-10.10619 0,0 z m -500.50002,0 c -3.26192,-4.11686 -1.34403,-1.47685 0,0 z m 36,0 c 1.20936,-3.65615 2.46629,3.56228 0,0 z m 403,0 c -5.11617,-3.42198 9.24425,2.68501 0,0 z m -89.83333,-0.66667 c -3.07996,-4.52874 4.39982,0.85529 0,0 z M 567,546.16451 c 1.20936,-3.65615 2.46629,3.56228 0,0 z m 28,0 c 2.55494,-3.58745 2.55494,3.58745 0,0 z m -36.65811,-1.80062 c -43.64196,-16.5962 9.67367,-7.95086 0,0 z m 113.65813,0.80062 c 1.2094,-3.65614 2.4663,3.56227 0,0 z m -577.684866,-0.7009 c 7.863546,-5.20231 17.650326,-1.79159 0,0 z M 125,543.16451 c 1.20936,-3.65615 2.46629,3.56228 0,0 z m 45,0 c 9.03108,-3.46196 0.98288,3.78936 0,0 z m 25.91008,-1.92681 c -8.45403,-6.22077 12.34706,2.9332 0,0 z M 201,542.16451 c 2.55494,-3.58745 2.55494,3.58745 0,0 z m 287.63837,-0.5 c 0.60051,-5.80383 5.60873,6.31626 0,0 z m 41.5908,0.3125 c 3.63376,-5.24604 3.36214,4.44968 0,0 z m -423.78804,-1.29857 c 23.20992,-6.35069 59.47972,-7.54167 13.78298,-0.25372 2.94462,-3.71303 -17.72092,6.38904 -13.78298,0.25372 z M 493,539.66451 c -17.30603,-14.26524 -22.37028,-28.43887 -32.00004,-45.52787 -7.96621,-9.9063 -13.09673,-33.62159 -12.80161,-14.56902 4.19717,18.32959 -22.30454,-41.92233 -3.38246,4.58267 -12.90926,12.92564 -10.11032,54.81514 -14.21551,12.95188 -16.99655,-13.42338 14.3462,-86.66941 14.63942,-55.56461 4.04965,31.2679 19.94469,50.16825 46.11938,68.57999 15.02962,19.46212 -24.57156,1.7682 3.13599,27.7942 1.92645,0.80285 -1.08763,5.75165 -1.49517,1.75276 z m -9,-13 c -7.09823,-5.67777 3.48609,5.19382 0,0 z m 8,-9.55902 c -2.88022,-1.90558 -2.3337,3.43479 0,0 z m -5.39583,-9.67015 c -2.25334,0.93468 2.10148,3.95964 0,0 z M 435.6939,490.16451 c -5.95894,-10.48715 1.90233,10.41851 0,0 z m 3.76216,-6.70343 c -5.08014,-17.99884 -3.28944,7.00813 0,0 z m -8.11235,-2.09024 c -11.08669,-11.28063 3.21468,12.00637 0,0 z m 2.17295,-15.0235 c -7.45337,-1.39518 3.50432,15.02192 0,0 z M 86.000004,539.24572 c 23.369556,-7.7009 12.63011,2.65514 0,0 z M 522.7467,537.28951 c -0.9877,-13.23176 9.21599,9.93049 0,0 z M 485,535.16451 c 1.20936,-3.65615 2.46629,3.56228 0,0 z M 55.554264,534.07673 c 5.61224,-3.22698 2.46744,2.86069 0,0 z M 112,534.03033 c 24.94126,-6.78726 -2.00674,4.0117 0,0 z m 423.25,-0.2257 c -8.67395,-9.86042 13.23751,5.38822 0,0 z M 67.510084,531.18085 c 2.26556,-3.47393 4.0337,1.92807 0,0 z M 125.5,531.16455 c 3.84426,-3.58521 2.56315,3.70389 0,0 z m 403.75,-0.71828 c 2.481,-4.63742 -0.64119,-0.95709 0,0 z m -455.249996,-1.0038 c 18.766,-9.61473 14.94318,1.23435 0,0 z M 524,528.16455 c -2.28641,-3.94731 7.30756,3.34805 0,0 z m 162.26612,-2.96922 c -7.64,-21.90443 -32.1707,-18.38748 -44.2661,-15.56596 -27.2455,-7.8739 7.7558,-1.40647 1.3453,-11.73999 18.3518,1.19398 34.4165,-2.45532 17.104,-7.11451 20.7861,-13.26021 6.7389,9.94723 33.8225,-1.07749 36.1122,1.72736 -8.6697,16.7415 -2.8095,19.5763 18.3662,48.04852 -22.9717,-29.97218 -3.4623,12.86471 0.4656,1.9197 6.4979,12.89673 -1.7339,3.05694 z m -19.2661,-19.06216 c -3.9432,-5.81983 -4.7576,3.73009 0,0 z m 23.2895,-1.96962 c -5.9202,-7.74545 1.1023,9.59119 0,0 z m -9.2895,-2.93998 c -1.8976,-5.03541 -3.1061,3.62658 0,0 z m 8,-2.05902 c -2.5549,-3.58745 -2.5549,3.58745 0,0 z m 6.25,-2.39205 c 5.7995,-6.56623 -8.924,4.77587 0,0 z m 9.75,-1.60795 c -2.5549,-3.58745 -2.5549,3.58745 0,0 z m -615.000016,30 c 9.40584,-6.31989 9.252,3.85706 0,0 z m 526.000016,-3.60699 c 5.4973,-4.85476 5.0006,6.01296 0,0 z m 140,-0.39301 c 2.4139,-6.95128 2.4139,6.95128 0,0 z m -256.33335,0.33333 c -2.76308,-10.16485 7.22158,4.31078 0,0 z m 111.87605,-0.26423 c 1.5595,-5.61113 4.8604,3.55041 0,0 z m -5.0966,-1.15623 c -0.3138,-9.90271 7.7417,6.17894 0,0 z M 212,518.60553 c 3.10612,-3.62658 1.89758,5.03541 0,0 z m -4.81805,-1.94098 c -0.25676,-9.0199 6.80512,7.15668 0,0 z m 394.81807,1 c 3.1799,-4.46365 2.4071,4.67418 0,0 z m -569.000016,-0.5 c 3.84424,-3.5852 2.56316,3.70388 0,0 z M 578,516.72357 c 2.3337,-3.43479 2.88022,1.90558 0,0 z m 48.50002,-1.20196 C 605.47042,505.01784 583.64857,515.54121 566,503.1455 c 15.02069,1.0074 43.59002,-12.18118 39.55852,1.74395 15.8145,4.54415 11.8555,-6.81442 20.4415,8.2751 11.1814,-7.68714 25.8348,10.55379 0.5,2.35706 z m -7.0589,-4.82526 c -31.81499,-10.7643 6.4552,6.37713 0,0 z m -48.17029,4.86403 c 3.9597,-2.10138 0.93456,2.25342 0,0 z M 45.000004,513.22357 c 2.3337,-3.43479 2.88022,1.90558 0,0 z M 593,513.16457 c 2.55494,-3.58745 2.55494,3.58745 0,0 z m 151.58342,-0.64313 c 1.4655,-7.82066 5.1865,6.00917 0,0 z M 204,511.66457 c 2.37355,-5.24699 0.86541,5.2821 0,0 z M 9,510.72359 c 2.3337,-3.43479 2.88022,1.90558 0,0 z m 192,-0.95203 c -13.83097,-15.44935 9.65361,1.21155 0,0 z m 354.00071,0.11826 C 534.723,511.16474 535.39779,492.85084 518,489.69595 c -14.10815,-25.2648 5.68013,-17.49827 15.77924,3.45087 1.23019,2.38973 18.50646,22.70616 24.08057,17.619 l -2.8591,-0.87597 0,-3e-5 z M 522.74986,483.5811 c -5.10161,-0.59536 -0.45532,5.12073 0,0 z M 518,474.72359 c -1.77691,-6.78707 -3.09158,5.40584 0,0 z m 49,34.76577 c 6.06609,-4.29948 8.26924,5.15151 0,0 z M 13.24954,508.91457 c 5.21791,-5.41662 4.47671,4.72603 0,0 z M 557,505.16457 c -12.67364,-5.67109 7.55655,-1.10484 0,0 z m 173.07892,-0.41667 c 0.4461,-4.31139 1.4435,2.66334 0,0 z m 14.9211,0.47569 c 1.8976,-5.03541 3.1061,3.62658 0,0 z m -185.00002,-1 c 1.89758,-5.03541 3.10612,3.62658 0,0 z m -365.04182,-3.13716 c -2.70301,-14.3937 7.90498,8.4145 0,0 z M 550,500.10074 c 10.36483,-15.62955 10.5258,-2.91401 0,0 z m 195.07892,-2.35284 c 0.4461,-4.31139 1.4435,2.66334 0,0 z m -553.49597,-0.44912 c -0.84454,-5.86196 -3.04125,-2.55298 0,4e-5 l 0,-4e-5 z M 575,496.72359 c 1.77691,-6.78707 3.09158,5.40584 0,0 z m -65,-0.59323 c 5.84033,-2.90018 9.11941,3.75232 0,0 z m 70.27576,-0.29448 c 5.48415,-5.00401 4.43345,2.86239 0,0 z m 7.28311,-2.13951 c 8.79029,-4.89928 -4.57509,5.39834 0,0 z m 19.95745,0.49464 c 5.5673,-11.52337 -29.93005,4.52859 1.3991,-9.19617 26.5043,-5.74173 5.5388,-1.65968 -1.3991,9.19617 z m -417.77465,-1.15113 c -5.88794,-6.5146 7.43029,1.50067 0,0 z m 500.25835,-4.63042 c 2.0983,-5.63486 4.5317,-0.0424 0,0 z m 47.25,-1.98625 c 2.5637,-9.37892 -3.7344,-12.29206 6.5288,-21.51477 -6.0789,11.31642 11.4264,14.96861 -6.5288,21.51477 z M 0,484.27303 c 4.1262,-12.39348 12.88386,5.35646 0,0 z m 242,-1.1085 c 2.55494,-3.58745 2.55494,3.58745 0,0 z m 433.00002,-0.87756 c 7.4241,-12.61564 13.5299,-0.24626 0,0 z m -451.02477,-3.68754 c -14.6996,-15.69667 12.10255,3.24326 0,0 z M 489,479.16453 c 2.55494,-3.58745 2.55494,3.58745 0,0 z m -253,-2.59362 c -24.75514,-29.92162 9.81358,-1.1559 0,0 z m 411.46792,0.54176 c -10.3314,-3.07087 6.7627,-1.09687 0,0 z m -142.68791,-1.10812 c -0.93087,-19.60083 5.58977,4.35183 0,0 z m -259.27293,-4.82857 c 2.53077,-1.82881 3.98123,3.22138 0,0 z m 499.49294,-0.0114 c 2.5549,-3.58745 2.5549,3.58745 0,0 z m -503.41707,-0.86579 c -0.84454,-5.86196 -3.04125,-2.55298 0,4e-5 l 0,-4e-5 z m 395.68787,0.26162 c 3.9598,-2.10137 0.9346,2.25339 0,0 z m 4.9911,-1.08631 c 11.3319,-3.95713 -6.3977,6.1288 0,0 z M 489,468.24637 c -3.76261,-9.23295 5.5822,3.14869 0,0 z m 9.75,-0.51192 c -19.31789,-9.67311 -13.51952,-39.4989 -1.18404,-52.06987 -2.72901,0.87467 -8.69122,51.94219 -0.20917,32.83617 3.734,5.7221 -0.56272,17.29299 1.39321,19.2337 z m -7.97917,-13.75742 c -3.63376,-5.24604 -3.36214,4.44968 0,0 z m 156.41669,14.125 c 3.1355,-5.58305 3.3059,3.64622 0,0 z M 505,466.72355 c 0.58932,-4.92806 3.06815,3.54506 0,0 z M 241.23517,465.3437 c -20.03375,-20.40141 3.53761,-18.69609 0,0 z M 84.000004,462.78697 c 2.73175,-5.40882 4.41226,1.44417 0,0 z M 264.45888,461.098 c -0.47789,-5.53043 5.23074,3.90342 0,0 z M 499,460.72355 c 2.3337,-3.43479 2.88022,1.90558 0,0 z m 220.50002,-0.55902 c 5.4655,-3.66091 3.7205,3.75517 0,0 z m 5.5,-1 c 5.4655,-3.66091 3.7205,3.75517 0,0 z m -112.5,-1 c -0.2583,-9.84377 6.0151,5.73465 0,0 z m 119.25,0.33772 c 5.5068,-1.62308 0.9994,1.75023 0,0 z m 12.25,0.2213 c 2.393,-3.41442 4.0484,1.91543 0,0 z m 4,0 c 2.393,-3.41442 4.0484,1.91543 0,0 z M 93.000004,456.16453 c 2.55494,-3.58745 2.55494,3.58745 0,0 z m 624.000016,-0.5 c 2.4793,-5.26898 2.4793,5.26898 0,0 z m -496.50002,-0.5 c 1.20936,-3.65615 2.46629,3.56228 0,0 z M 449,454.60551 c 3.10612,-3.62658 1.89758,5.03541 0,0 z m -185,-1.2153 c -6.93599,-9.44128 -8.76755,2.1068 -3.95289,-27.22568 12.52437,-11.36788 -12.25664,-44.04755 6.67453,-19.5006 9.84425,-44.27186 11.26333,9.09112 6.75154,2.0006 -1.65782,21.33514 -11.11601,29.20992 -9.47318,44.72568 z m 456.00002,0.77432 c 3.9032,-3.65313 3.9032,3.65313 0,0 z m 19.0289,-0.96094 c -4.103,-5.12188 7.3602,4.03178 0,0 z m -114.0289,-2.53906 c 3.1799,-4.46365 2.4071,4.67418 0,0 z m 99,0.61803 c 1.6501,-4.66873 3.4706,1.72386 0,0 z m -91.0459,-5.20368 c -2.3764,-10.2583 10.7359,9.13177 0,0 z m 37.5459,1.08565 c 1.2094,-3.65614 2.4663,3.56227 0,0 z M 30.381394,444.9726 c -33.896774,-6.38626 45.8581,-0.59324 0,4.6e-4 l 0,-4.6e-4 z m 212.466296,-3.65169 c 0.80151,-18.20784 -7.39253,12.08495 -3.5031,-11.15638 7.1339,-3.08057 8.75022,26.31157 3.5031,11.15638 z m 256.16762,3.09362 c 2.92405,-7.31226 0.77242,5.2376 0,0 z m 150.17251,0.64179 c -17.6321,-10.71999 13.2647,1.47682 0,0 z M 51.000004,444.28697 c 3.06115,-6.88905 5.47156,3.51848 0,0 z m 626.000016,-0.12244 c 3.8442,-3.58521 2.5632,3.70388 0,0 z m -52.3071,-3.24012 c -12.5537,-8.05426 15.6807,6.84042 0,0 z m 124.3071,-0.25988 c 3.8324,-5.38118 3.8324,5.38118 0,0 z M 125,438.90508 c 4.92612,-8.46914 4.96876,3.93442 0,0 z m -32.499996,-0.74055 c 2.65268,-3.8567 4.98834,3.6301 0,0 z M 107,437.53569 c 9.34706,-15.61658 1.73232,-12.35205 12,-2.92715 -2.67509,2.80452 -8.7105,6.33552 -12,2.92715 z m 147,-2.39591 c -19.7352,-28.40403 5.75452,0.75923 0,0 z m 525.00002,0.0247 c 2.5549,-3.58745 2.5549,3.58745 0,0 z M 124,434.10546 c -8.33017,-7.89097 15.14423,1.90091 0,0 z m 148,-1 c -5.62897,-4.17808 3.68158,0.44791 0,0 z m -136.81283,-1.0025 c 6.49264,-6.09259 10.06081,2.44041 0,0 z m 515.84175,0.10058 c -3.4361,-5.63699 7.3486,4.09787 0,0 z M 117,429.59874 c 3.88932,-13.06825 5.58075,3.48829 0,0 z m 17,-3.83329 c 12.42964,-9.27836 8.56994,-1.38819 0,0 z m 18.5,-1.60097 c 2.56315,-3.70389 3.84426,3.58521 0,0 z m 321.97122,-1.95344 c 14.51549,-13.56818 2.92621,1.66183 0,0 z m 220.7996,-1.65073 c 3.9598,-2.10137 0.9346,2.25339 0,0 z M 37.967834,415.13708 c -6.60266,-9.37233 15.47842,5.36927 0,0 z m 216.682826,0.55943 c 0.15978,-6.72445 3.0116,5.16843 0,0 z m -134.09179,-3.06383 c -4.57511,-5.39834 8.79033,4.8993 0,0 z M 155,409.66448 c 3.4511,-13.00115 2.33035,12.48947 0,0 z m 97.116,2.70819 c -9.13249,-12.18941 2.70301,-7.46526 0,0 z M 33.000004,411.16448 c 2.55494,-3.58745 2.55494,3.58745 0,0 z m 418.999996,-5 c 2.55494,-3.58745 2.55494,3.58745 0,0 z m 279.00002,-0.96482 c 5.2026,-7.10599 6.4324,1.56935 0,0 z M 155,402.16448 c 4.53101,-7.35299 0.6412,6.70613 0,0 z m 295.13586,0.13736 c -5.24653,-13.50903 12.33815,1.40315 0,0 z m 423.86416,-0.0808 c 16.7185,-19.67045 14.0051,-8.29364 0,0 z m -136,-1.05654 c 2.5549,-3.58745 2.5549,3.58745 0,0 z m 4,-0.94098 c 2.3337,-3.43479 2.8802,1.90558 0,0 z m -320.72919,-0.66319 c 3.9597,-2.10138 0.93456,2.25342 0,0 z m 327.72919,-0.32628 c -11.0953,-5.89774 14.4139,-1.80773 0,0 z m 52.7292,0.32628 c -3.6167,-5.63832 3.8812,-1.40636 0,0 z m -47.0979,-3.0978 c 4.9235,-9.56981 18.0272,-2.38858 0,0 z m 23.3687,-1.86946 c 8.3135,-13.2127 7.4449,4.58178 0,0 z m 142,1.03519 c 1.2407,-6.82769 9.15038,-7.18835 0,0 z M 453,393.35992 c 31.73697,-37.22708 26.88043,-10.75311 0,0 z m 339.25002,-3.8577 c 0.2548,-15.38138 11.3254,12.66081 0,0 z M 562.5,387.1645 c 1.20936,-3.65615 2.46629,3.56228 0,0 z m 236.50002,0 c 2.5549,-3.58745 2.5549,3.58745 0,0 z m 88.9595,-1.92431 c 6.7776,-6.9331 -2.0583,6.4235 0,0 z m -447.52294,-1.37538 c -45.74591,-22.65082 33.13106,6.20827 0,0 z m 361.56344,0.29969 c 2.5549,-3.58745 2.5549,3.58745 0,0 z m 24.7564,-1.25 c 15.1194,-19.00259 1.5706,7.16186 0,0 z m 17.2436,1.30902 c 2.3337,-3.43479 2.8802,1.90558 0,0 z m 48.6063,-1.47546 c 6.0395,-6.2907 7.3595,1.90568 0,0 z m -29.5863,-2.10773 c 4.7124,-4.29785 -1.1539,5.41162 0,0 z M 274,379.72352 c 2.3337,-3.43479 2.88022,1.90558 0,0 z m 529.00002,-1.15781 c 18.2264,-22.54627 36.3557,-27.07343 0,0 z m 105.6236,-0.60125 c 7.6523,-3.02683 7.9072,3.66436 0,0 z M 586.03041,373.6145 c 1.43757,-7.95502 0.93656,8.07989 0,0 z m 176.93521,-0.2 c -1.4633,-14.16646 10.1949,-14.9552 -1.2156,-24.64753 21.3774,7.5055 41.0868,11.00609 14.7111,-3.53951 9.9348,13.07957 45.0406,-10.64724 40.5123,1.13892 -22.0112,-9.36847 -21.6715,31.83712 -42.1824,7.92656 5.3721,14.66858 13.6756,7.68257 -2.9518,10.85705 26.9345,10.84405 -12.1983,3.69844 -8.8736,8.26451 z m 5.4933,1.68347 c 0.1286,-7.59222 8.1206,6.21954 0,0 z m 67.5411,-0.84962 c 14.5124,-21.24776 17.6745,-5.97725 0,0 z M 572,373.1645 c 1.20936,-3.65615 2.46629,3.56228 0,0 z m -92.25433,-1.48691 c -20.97424,-4.68104 16.47958,-3.36083 0,0 z m 443.25435,0.16786 c -16.7327,-3.67563 8.14768,-2.38871 0,0 z m -135.6182,-3.12838 c 2.6023,-9.06427 4.3499,3.20822 0,0 z m -293.295,-2.94796 c -29.40908,2.40716 12.00185,-21.39594 0.22443,-2.32282 7.60176,-0.82969 1.68856,7.16557 -0.22443,2.32282 z M 586,365.1645 c 2.41393,-6.95128 2.41393,6.95128 0,0 z m 17.50002,-1 c 3.5882,-3.80715 1.242,3.94233 0,0 z m -100.84035,-1.13065 c -19.35611,-3.64443 9.40386,0.1651 0,0 l 0,0 z m -81.19861,-0.93236 c 8.78834,-15.0018 6.58523,-19.6834 -4.34849,-24.90468 29.95857,5.28741 0.21596,-18.26427 17.88743,-15.53228 -24.45362,-16.41163 -5.04054,-4.32335 -10.30035,-13.66517 9.51644,0.19973 7.46007,-1.30312 6.30035,-22.60449 3.6619,-7.67982 14.27753,36.57971 36,31.22696 -18.40241,14.02763 -31.0835,27.44914 -26.09594,37.77827 -4.18366,4.49304 0.60935,7.73773 -17.10406,5.9644 3.8814,1.87775 -1.51645,4.19698 -2.33894,1.73699 z M 436,338.60548 c -2.88022,-1.90558 -2.3337,3.43479 0,0 z m 18,-18.60765 c -7.61628,-4.5132 -2.41352,4.50849 0,0 z m -16.57143,-23.2619 c -7.76835,-3.86516 5.45292,6.163 0,0 z M 433,295.1645 c -2.46629,-3.56228 -1.20936,3.65615 0,0 z m 173.50002,67 c 1.2094,-3.65614 2.4663,3.56227 0,0 z m 2.5,-2 c 24.7233,-26.30492 29.6313,-14.59512 0,0 z m 218,-0.9244 c 5.8153,-5.21232 11.4042,2.83226 0,0 z m -230.45731,-2.0065 c 0.36508,-4.92516 3.18754,3.32686 0,0 z m 223.45731,-1.45247 c 4.6698,-6.95891 3.1096,4.37128 0,0 z m -317.05221,-1.05375 c 5.12732,-7.04255 7.83369,3.00721 0,0 z m 13.68788,-1.06904 c -23.75344,-5.86203 18.68735,-0.27359 0,0 z M 600,352.1645 c 1.31714,-5.73349 1.31714,5.73349 0,0 z m 63.00612,0.37244 c 4.4469,-10.6714 1.0476,4.53059 0,0 z m 6.0139,-3.89661 c 4.7124,-4.29785 -1.1539,5.41162 0,0 z m 169.98,-0.3578 c 1.6501,-4.66873 3.4706,1.72386 0,0 z M 414.75,347.0844 c -5.7633,-6.53997 6.64834,3.1196 0,0 z m 277.25002,-1.42184 c 36.9303,-39.97959 -45.5712,23.65185 -11.2501,-14.62358 19.5243,-26.00012 -20.6303,-9.90671 -35.7893,1.38754 8.0676,-13.27354 -2.3402,-11.74392 19.3209,-19.92564 11.091,4.59742 23.2205,-18.18242 28.8255,-7.33638 26.4408,-10.63708 -18.5573,23.55733 18.1679,4.03758 0.2428,2.16249 -1.3254,22.723 6.2247,8.99564 11.271,11.95556 -20.89,19.18915 -25.4996,27.46484 z m 8.1634,-19.39595 c 35.2073,-12.91128 -28.5234,2.46106 0,0 z m -10.1634,-7.10211 c -2.5632,-3.70388 -3.8442,3.58521 0,0 z m -1.5,-14 c -2.4663,-3.56227 -1.2094,3.65614 0,0 z m 97.5,40 c -1.1578,-3.69214 12.0482,3.77521 0,0 z m -378.72919,-1.60417 c 3.9597,-2.10138 0.93456,2.25342 0,0 z m 521.99107,-2.08631 c 7.3362,-4.19196 -3.35888,5.57246 0,0 z M 750.16312,336.4914 c -16.8243,-4.19409 -47.3369,3.89959 -23.9101,-7.35009 -10.252,-30.65222 11.568,18.1127 7.4797,-5.51131 -10.834,-12.11099 22.4228,17.52737 1.9901,-8.94291 0.9785,14.35412 43.084,14.59318 37.5067,14.15546 6.9676,11.30052 -17.0739,-2.18393 -23.0664,7.64885 z m 45.2958,0.60657 c -0.478,-5.53043 5.2308,3.9034 0,0 z m 59.2349,-2.57295 c -1.7785,-7.142 6.797,3.78863 0,0 z m -238.423,-0.96469 c 3.9598,-2.10137 0.9346,2.25339 0,0 z m 173.2387,-1.17174 c -6.7596,-6.99569 10.7205,6.16299 0,0 z M 454,331.6645 c 2.47933,-5.26898 2.47933,5.26898 0,0 z m 322.00002,-3 c 2.3735,-5.24699 0.8654,5.28209 0,0 z m 4.02,-0.0242 c 4.7124,-4.29785 -1.1539,5.41162 0,0 z M 418.5,327.1645 c 2.56315,-3.70389 3.84426,3.58521 0,0 z m 220.50002,-3 c 4.9615,-10.58437 7.8573,1.25786 0,0 z M 113,320.21288 c -27.307346,-14.88271 -2.58171,-1.50927 3.22348,-0.14132 L 113,320.21288 l 0,0 z m 12.90428,-3.66372 c -2.15443,-4.98635 7.12776,5.06406 0,0 z m 343.26239,-0.38466 c 7.90809,-7.31676 3.88535,5.54913 0,0 z m 174.83335,-1 c 2.5549,-3.58745 2.5549,3.58745 0,0 z m 195.4386,-0.33179 c -0.4994,-12.94933 7.7583,-6.59265 0,0 z m 4.5614,0.60625 c 2.1051,-8.40626 5.0345,0.29704 0,0 z M 326,311.6645 c 2.47933,-5.26898 2.47933,5.26898 0,0 z m 339.50002,-0.5 c 1.242,-3.94233 3.5882,3.80715 0,0 z m -94.10244,-2.84458 c -37.36745,-28.47297 19.82703,7.89419 0,0 z M 578,309.73284 c 12.76375,-5.3033 14.53003,3.83735 0,0 z m 270.00002,-0.50932 c 2.3337,-3.43479 2.8802,1.90558 0,0 z m 30,-2 c 2.3337,-3.43479 2.8802,1.90558 0,0 z m -145.8333,-4.05902 c 3.1955,-4.24398 3.4275,3.68976 0,0 z M 419,302.1645 c 1.20936,-3.65615 2.46629,3.56228 0,0 z m 126.5818,-1.25 c -5.8665,-21.5765 6.02078,9.44229 0,0 z M 359,299.10548 c 3.09158,-5.40584 1.77691,6.78707 0,0 z m 322.00002,-1.82295 c 1.6936,-12.19956 2.7107,9.13048 0,0 z m 16.7754,2.32407 c 1.1752,-15.50233 -96.86079,-11.64195 -39.5613,-18.52359 -5.6791,-11.35557 43.4711,-5.95834 44.7853,-14.94993 11.8931,-7.56039 -10.3799,13.01093 9.0312,16.28142 10.0099,10.07424 1.6871,17.82784 -14.2552,17.1921 z m -13.2754,-11.4421 c -3.5882,-3.80715 -1.242,3.94233 0,0 z m -6.5,-0.89301 c -3.4708,-5.06611 -3.1557,3.20582 0,0 z m 6.932,-5.35699 c 27.6939,3.98067 -17.191,-13.17372 -2.2916,0.74455 l 0.4232,1.50545 1.8684,-2.25 z m 16.068,0.69098 c -2.8802,-1.90558 -2.3337,3.43479 0,0 z m -32.5284,-4.48691 c -9.5419,-4.64507 0.016,6.33607 0,0 z m 35.5284,1.48691 c -2.8802,-1.90558 -2.3337,3.43479 0,0 z m -134.93063,16.14263 c -17.20583,-5.98164 -0.4918,-4.89364 0,0 z M 262,294.1645 c 3.11751,-6.16775 3.11751,6.16775 0,0 z m 108.45612,0.929 c 3.05429,-20.34061 -4.18062,-51.51667 21.52566,-52.81848 24.69175,-0.28167 -8.80701,17.23105 -15.25992,28.76762 -4.58576,5.23499 -0.0252,26.13202 -6.26574,24.05086 z m 7.14805,-31.65817 c -4.88899,-0.0236 2.72503,5.17529 0,0 z m -3.32479,-1.31049 c -2.87319,-5.9012 1.26787,6.88782 0,0 z M 386,262.16454 c -2.55494,-3.58745 -2.55494,3.58745 0,0 z m -6.44295,-7.77354 c -6.15032,1.39121 -2.36851,7.46285 0,0 z M 390,249.89292 c -1.54242,-5.55971 -5.90503,9.18503 0,0 z m 5,-1.12139 c -3.90288,-7.04471 -1.5726,4.35551 0,0 z m -16,43.39301 c 2.55494,-3.58745 2.55494,3.58745 0,0 z m -40,-2.88197 c 1.65009,-4.66873 3.4706,1.72386 0,0 z m 89.58295,0.0162 c -0.84454,-5.86196 -3.04125,-2.55298 0,4e-5 l 0,-4e-5 z m -49.56764,-2.32519 c 0.83347,-8.83145 4.32452,2.88823 0,0 z m -81.76578,-2.05904 c 7.09382,-7.28709 1.61092,5.76134 0,0 z M 601,280.22356 c 1.89762,-5.0354 3.10612,3.62657 0,0 z m -220.60831,-3.27292 c 2.96687,-25.55396 7.86206,3.95425 0,0 z M 431,277.19592 c 4.00798,-1.77513 3.90414,3.2606 0,0 z m 166.4241,-0.15419 c 2.20467,-12.97786 20.15142,5.96594 0,0 z M 591,276.16454 c 2.55494,-3.58745 2.55494,3.58745 0,0 z m 2.35999,-1.73141 c -14.13188,2.9386 5.53641,-10.65624 0.74661,1.41867 l -0.74661,-1.41867 0,0 z m 59.50343,1.2615 c -21.4899,-5.27192 15.5041,-4.28539 0,0 z M 432,273.66454 c 2.47933,-5.26898 2.47933,5.26898 0,0 z m 209.50002,-1.5 c 3.5882,-3.80715 1.242,3.94233 0,0 z M 369,271.22356 c 2.3337,-3.43479 2.88022,1.90558 0,0 z m 236.83602,-0.19263 c -11.33904,-8.65547 10.6862,3.81806 0,0 z m 33.164,-0.86639 c 1.2094,-3.65614 2.4663,3.56227 0,0 z m 51.2845,-1.75 c -11.5783,-14.04173 9.3477,3.58969 0,0 z m -84.6396,-1.76767 c -21.51353,-1.80862 10.8927,-3.00281 0,0 z M 433,261.66454 c 2.36366,-8.66117 2.36366,8.66117 0,0 z m 123.56429,1.20687 c 3.50436,-4.56352 -1.26619,4.16137 0,0 z m 256.93013,-1.713 c -4.2887,-9.54266 8.8646,7.65384 0,0 z M 187.1184,260.52784 c -2.39286,-4.83599 6.90528,4.95888 0,0 z m 463.37722,0.62964 c 23.9508,-6.06798 20.3381,-14.63266 5.9664,-19.93814 28.2372,7.60384 42.5137,-8.6505 34.2498,6.14565 -4.1331,13.79493 -27.9611,8.13479 -40.2162,13.79249 z m 171.5044,-0.49294 c 2.4793,-5.26898 2.4793,5.26898 0,0 z m -111,-1.5 c 2.5549,-3.58745 2.5549,3.58745 0,0 z m 99.2292,-3.1875 c 3.1986,-5.50199 2.0362,4.61234 0,0 z M 204.5,248.16454 c 1.20936,-3.65615 2.46629,3.56228 0,0 z m 362.16667,-0.66667 c 0.7182,-9.99447 11.04979,-5.17427 28.74189,-14.71101 -6.9083,3.85916 -19.47041,13.49752 -28.74189,14.71101 z m 128.83335,-0.33333 c 5.7757,-4.06004 1.5573,3.16634 0,0 z m -132.8421,-1.55093 c 2.7886,-4.70488 2.9395,3.51706 0,0 z m 140.3421,-1.33104 c 1.6501,-4.66873 3.4706,1.72386 0,0 z M 395.8265,242.6577 c -1.36555,-15.54 5.82174,1.38593 0,0 z M 400,236.16454 c 2.55494,-3.58745 2.55494,3.58745 0,0 z m 294.50002,-3 c -0.2439,-10.7253 4.0249,4.59608 0,0 z M 399,231.78257 c 1.19913,-6.48995 3.67794,3.64461 0,0 z m 176.27083,0.7778 c 3.9597,-2.10138 0.93456,2.25342 0,0 z m 123.72919,-2.22152 c 15.0136,-20.041 58.2147,-29.88199 24.75,-11.38734 19.8424,10.53146 -17.2937,-1.00346 -23.7747,13.02976 l -0.9753,-1.64242 0,0 z m -144.96939,0.32569 c 0.81465,-5.58593 3.50429,-1.35954 0,0 z m 22.96937,-0.5 c 3.90318,-3.65313 3.90318,3.65313 0,0 z m 31.07892,-2.41667 c 0.4461,-4.31139 1.4435,2.66334 0,0 z M 584,225.69972 c 9.29519,-11.816 12.9916,0.46966 0,0 z m 214.94592,-3.6734 c -27.3369,-31.08382 11.9307,2.11713 0,0 l 0,0 z M 397,221.22356 c 1.78505,-8.55598 2.98697,7.161 0,0 z m 5,0.5 c 1.77691,-6.78707 3.09158,5.40584 0,0 z m 200.27082,0.83681 c 3.9598,-2.10137 0.9346,2.25339 0,0 z m 210.1788,-0.68387 c -21.4062,-19.14807 6.8507,-9.72817 0,0 z m 11.0215,0.33471 c -10.0471,-9.20581 3.3257,-8.82433 0,0 z m -216.4711,-0.93968 c 13.4266,-7.81488 7.3136,1.64686 0,0 z m -43.36385,-1.60125 c 3.99553,-3.63466 0.43951,5.05776 0,0 z m 31.10101,-3.70446 c 12.03664,-9.99674 -7.55763,11.05606 0,0 z m 134.26284,1.79749 c 12.7548,-7.84955 21.8686,-4.00768 1.75,1.01611 l -1.75,-1.01611 z m 54.25,-3.25069 c -16.0396,-4.6166 -62.683,-8.38949 -26.25,-9.71524 10.7531,-3.08276 38.1593,5.54882 26.25,9.71524 z M 571,215.36454 c 6.29802,-9.84305 3.58285,2.23316 0,0 z m 106.50002,-0.2 c 14.3536,-21.09666 -39.5939,2.04242 4.6205,-17.79928 20.1387,-16.47935 1.147,9.19371 -4.6205,17.79928 z m -77.50002,-3 c 3.84432,-3.58522 2.56312,3.70391 0,0 z m -192,-1.44098 c 1.89758,-5.03541 3.10612,3.62658 0,0 z m 174.50051,-3.55819 c 6.42249,-7.96557 7.28237,1.22238 0,0 z m 171.97811,-6.97725 c 8.0075,-5.86434 -3.6396,7.02149 0,0 z m -62.8519,-0.4932 c 5.1805,-4.23199 0.4172,4.68349 0,0 z m 76.3886,0.71962 c 1.5228,-7.01222 4.429,2.90213 0,0 z m -66.0517,-1.7062 c 3.1286,-12.36369 -15.4392,-8.4379 14.3442,-20.82242 17.7601,-4.37035 37.1498,-15.68603 37.5927,14.34987 -15.2721,-35.9049 -5.7464,20.26706 -18.9641,-13.57125 -10.2015,3.86282 11.697,9.94994 -14.044,12.5 20.5973,-23.0134 -39.3015,2.81396 -5.1171,-4.53357 -4.0969,-2.04573 -14.265,17.30855 -13.8117,12.07737 z m 41.0364,-17.43681 c -3.8519,-5.25148 -2.1115,2.34076 0,0 z m 19.2729,16.89301 c 19.5914,-6.80557 -11.0163,8.71843 0,0 z m 21.2271,0 c 2.5632,-3.70388 3.8442,3.58521 0,0 z M 539,197.22356 c 2.3337,-3.43479 2.88022,1.90558 0,0 z m 155.00002,-0.52764 c 4.183,-3.53985 3.5881,4.94716 0,0 z m 88,-15.97236 c 2.3337,-3.43479 2.8802,1.90558 0,0 z m -154,-1.97569 c 3.5458,-5.33904 3.4938,4.45068 0,0 z m 6,-2.67695 c -3.069,-4.76473 -20.0951,-5.39737 7.7093,-8.51411 -1.1804,-13.27906 55.9159,-33.05462 37.1689,-13.04635 -14.6929,6.17729 -29.3152,20.96755 -44.8782,21.56046 z m 18,-12.90638 c 4.9705,-7.26828 -10.2292,6.59352 0,0 z m 23,-14 c -2.5632,-3.70388 -3.8442,3.58521 0,0 z M 275,175.26482 c 6.52311,-3.49138 13.4279,1.48292 0,0 z m 488.00002,-4.10028 c 3.8442,-3.58521 2.5632,3.70388 0,0 z m -306.87246,-1.66262 c -1.85513,-13.37468 6.20318,6.17636 0,0 z m 152.37246,-2.33738 c 3.5882,-3.80715 1.242,3.94233 0,0 z M 579.2393,166.3336 c 8.32127,-13.99668 50.13152,-31.81843 38.76072,-18.53888 -14.4638,1.27332 -26.22896,16.30544 -38.76072,18.53888 z m 171.76072,-7.61004 c 2.3337,-3.43479 2.8802,1.90558 0,0 z m -316.36385,-2.05328 c 3.99553,-3.63466 0.43951,5.05776 0,0 z m -85.09346,-2.43664 c 0.36508,-4.92516 3.18754,3.32686 0,0 z m -14.36406,-5.21198 c 4.66323,-10.50003 0.0658,10.07579 0,0 z m 241.57185,0.66774 c 2.95113,-10.60963 1.91363,8.46872 0,0 z m 225.99952,-1.91691 c -8.188,-17.91041 7.6471,6.44209 0,0 z M 581.6232,144.62501 c 2.88666,-15.54807 8.70974,-16.04805 25.31782,-22.46047 22.1746,-11.67867 -16.34837,20.99847 -25.31782,22.46047 z m 104.40862,-0.702 c 5.3253,-13.64101 4.3586,3.73624 0,0 z m 118.9682,0.24153 c 2.5549,-3.58745 2.5549,3.58745 0,0 z m -179.1116,-2.22751 c 14.5819,-16.63388 0.5096,7.44505 0,0 z m 92.8054,1.58803 c -0.4769,-5.87718 5.0703,2.17588 0,0 z m 104.0562,-0.44062 c -7.2856,-11.47832 11.4946,6.05011 0,0 z m -45.25,-2.9199 c 1.2094,-3.65614 2.4663,3.56227 0,0 z m -85.5,-1.44098 c 0.5893,-4.92811 3.0682,3.54508 0,0 z M 319,136.66454 c 2.47933,-5.26898 2.47933,5.26898 0,0 z m -11,-1 c 16.77699,-2.68123 -3.82523,-0.22914 0,0 z m 14.5,0.5 c 2.56315,-3.70389 3.84426,3.58521 0,0 z M 301,133.69592 c 4.18296,-3.53985 3.58806,4.94716 0,0 z m 361.44112,-6.96955 c 5.9464,-11.53846 10.8901,-0.29092 1e-4,0 l -1e-4,0 z m 6.0589,0.43817 c 3.5882,-3.80715 1.242,3.94233 0,0 z m -41.2803,-6.44868 c -19.5168,-7.51938 32.2135,2.31559 0,0 z m -25.2197,-0.50163 c -6.42105,-6.58727 -53.74842,-13.32623 -23.78925,-8.93493 2.41326,-1.86631 48.82755,5.94992 23.78925,8.93493 z m 14,-2.04969 c 2.5632,-3.70388 3.8442,3.58521 0,0 z m -4.4573,-0.9309 c 0.3651,-4.92516 3.1875,3.32686 0,0 z M 343.5,116.16454 c 1.20936,-3.65615 2.46629,3.56228 0,0 z m 282.01572,0.0254 c 0.5864,-5.39669 5.7094,3.38587 0,0 z m -459.50041,-2.7754 c 2.24927,-11.81468 3.68363,7.00233 0,0 z m 514.98471,0.30902 c 1.8976,-5.03541 3.1061,3.62658 0,0 z m -60.25,-0.2213 c 5.5068,-1.62308 0.9994,1.75023 0,0 z m -4.4792,-0.94189 c 3.9598,-2.10137 0.9346,2.25339 0,0 z m -0.703,-7.5378 c -28.57928,-7.083731 37.5298,3.40114 0,0 z m 185.1822,-1.52031 c 5.5068,-1.62308 0.9994,1.75023 0,0 z m -201.47919,-1.94189 c 3.95969,-2.101381 0.93456,2.25342 0,0 z m 160.29579,-9.162581 c 8.107,-16.136053 10.8548,-3.37079 0,0 z M 600.5,90.164539 c 2.56322,-3.70386 3.84422,3.58519 0,0 z m 172.01012,-4.98369 c 2.2655,-3.473913 4.0336,1.92807 0,0 z M 437.5,57.164526 c 3.84426,-3.58521 2.56315,3.70389 0,0 z m 285.57892,-8.41667 c 0.4461,-4.31139 1.4435,2.66334 0,0 z M 444.1875,48.102026 c 3.13548,-5.58305 3.3059,3.64622 0,0 z M 501,37.164526 c 1.20936,-3.65615 2.46629,3.56228 0,0 z m 162.98632,-16.75 c -2.0139,-18.32349 4.0433,10.357 0,0 z m -32.9863,-7.25 c 3.9032,-3.65313 3.9032,3.65313 0,0 z M 579.02006,1.688696 c -1.15397,-5.41159 4.71241,4.29784 0,0 z"
     id="path2821" />
</svg>
